<svg xmlns="http://www.w3.org/2000/svg" xml:space="preserve" viewBox="0 0 2000 2000">
  <path fill="#45464C" d="M1011.21 266.54s.45 0 .97-.13c1.95.28 3.5.46 4.77 1.14 9.83 5.2 19.66 10.4 29.38 15.79 13.97 7.73 27.84 15.64 41.77 23.43 6.59 3.68 13.26 7.21 19.83 10.9 4.03 2.26 7.92 4.77 11.94 7.04 10.47 5.9 21.4 10.86 31.66 17.24 12.36 7.68 25.42 14.22 38.25 21.14 8.67 4.68 17.56 8.95 26.15 13.76 15.2 8.52 30.18 17.4 45.36 25.94 9.81 5.53 19.83 10.68 29.73 16.06 9.65 5.24 19.3 10.48 28.88 15.86 11.97 6.73 23.77 13.76 35.8 20.38 14.76 8.13 29.74 15.87 44.52 23.97 12.18 6.66 24.2 13.6 36.3 20.42 8.74 4.92 17.46 9.87 26.24 14.72 6.22 3.43 12.53 6.7 18.97 10.3.9.54 1.61.83 2.52 1.31.5.32.83.44 1.37.82 1.62.87 3.02 1.49 4.6 2.24.18.14.63.21.73.49.77.63 1.43 1 2.43 1.54 12.6 6.96 24.84 13.77 37.12 20.5 5.7 3.14 11.53 6.07 17.21 9.24 9.25 5.16 18.38 10.54 27.66 15.64 11.65 6.4 23.69 12.17 34.97 19.16 4.69 2.91 9.95 4.22 14.6 7.7 8.95 6.71 19.5 11.29 29.36 16.8a636.46 636.46 0 0 1 24.71 14.42c.72 4.6-1.06 7.15-4.74 9.13a3907.4 3907.4 0 0 0-42.54 23.4c-25.06 13.9-50.15 27.75-75.11 41.83-9.01 5.09-17.65 10.83-26.5 16.19-4 2.42-8.1 4.63-12.48 7.12-17.09 9.24-33.94 18.18-50.63 27.4-15.54 8.6-30.85 17.59-46.36 26.22-14.93 8.31-30.01 16.36-45 24.59-6.54 3.6-13.25 6.98-19.42 11.16-3.83 2.6-6.64 2.19-10.27.06a1550.53 1550.53 0 0 0-39.62-22.67c-16.85-9.23-34-17.9-50.83-27.17A2881.03 2881.03 0 0 1 1194 736.6c0-4.8-3.42-4.08-6.06-4.5.03-.05-.06.01-.08-.35-1.95-1.17-3.88-1.97-5.83-3.17l-.24-4.87c-6.02 1.74-14-4.12-14.23-10.09-.03-.8-.7-1.77-1.36-2.26-.32-.24-1.43.32-2 .76-.68.52-1.18 1.3-1.18 1.3-5.54-3.1-10.65-5.82-15.56-8.84-1.16-.72-2.07-2.39-2.38-3.78-.95-4.18-5.44-6.75-9.38-5.47-1.87.6-4.04.3-6 .4.3-2.8 1.01-4.53.49-5.68-1.05-2.3-17.22-8.75-19.51-8.64-3.44.17-6.93.08-10.33-.38-1.2-.16-2.61-1.51-3.21-2.68-2.71-5.29-4.34-5.75-8.34-2.76-2.68-1.27-4.84-2.5-7.16-3.32-2.13-.75-3.34-3.4-2.36-6.04l4.69 2.87c-1.94-6.44-6.47-7.57-13.4-4.15-.12-1.22-.42-2.28-.29-3.29.46-3.38-.7-4.5-4.18-3.85-4.55.85-8.9.73-13.07-2.23-4.13-2.92-8.84-5.04-13.3-7.47-5.53-3-11.47-5.4-16.51-9.06-7.7-5.59-8.8-6.07-13.55-.88-3.91 2.12-7.5 4.12-11.1 6.1-14.46 8-28.88 16.05-43.39 23.95-12.93 7.04-26.08 13.71-38.92 20.91-13.58 7.6-26.93 15.6-40.35 23.48-10.33 6.07-20.6 12.24-31.28 18.38-1 .17-1.72.18-2.27.48-20.85 11.68-41.63 23.47-62.53 35.06-17.43 9.66-35.05 18.97-52.47 28.63-16.1 8.93-32.09 18.09-48.07 27.24-2.6 1.49-4.56 1.33-7.24-.19-14.85-8.4-29.89-16.49-44.82-24.76-28.9-16-57.76-32.1-86.68-48.1-10.72-5.92-21.56-11.64-32.56-17.73-5.76-3.25-11.37-6.1-16.83-9.23-14.09-8.09-27.98-16.52-42.17-24.41-18.57-10.32-37.38-20.2-56.03-30.34a4669.7 4669.7 0 0 1-48.98-27.06c-.42-.34-.73-.44-1.12-.89.31-1.67.3-3.69 1.19-4.23a701.5 701.5 0 0 1 27.63-16.34c12.99-7.19 26.19-13.98 39.25-21.03 8.64-4.65 17.21-9.42 25.8-14.18 14.3-7.92 28.55-15.91 42.87-23.8 9.18-5.07 18.46-9.95 27.65-15 7.86-4.32 15.64-8.8 23.5-13.13 4.96-2.73 10.05-5.22 14.97-8.02 8.44-4.8 16.71-9.9 25.2-14.61 9.43-5.23 19.06-10.05 28.51-15.22 12.8-6.98 25.47-14.2 38.27-21.19 12.11-6.61 24.4-12.93 36.46-19.63 13.4-7.44 26.58-15.31 40-22.72 16.22-8.96 32.65-17.54 48.9-26.44 9.2-5.05 18.25-10.4 27.36-15.64 7.7-4.43 15.3-9.04 23.08-13.34 10.88-6.03 21.91-11.78 32.81-17.77 11.31-6.22 22.5-12.68 33.82-18.88 10.32-5.66 20.79-11.06 31.13-16.7 12.25-6.67 24.45-13.46 36.66-20.22 21.1-11.67 42.2-23.36 63.29-35.05z"/>
  <path fill="#555860" d="M1517.96 731.85c4.05-2.3 8.16-4.52 12.15-6.94 8.86-5.36 17.5-11.1 26.5-16.19 24.97-14.08 50.06-27.93 75.12-41.84 14.15-7.85 28.3-15.7 42.54-23.39 3.68-1.98 5.46-4.54 5.1-9.05 5.23.65 7.23 3.96 7.65 8.56-.04 20.48-.11 40.97-.11 61.45 0 38.15 0 76.3.15 114.45.01 3.62-1.14 5.43-4.41 7.2-19.82 10.7-39.4 21.83-59.17 32.6-21.07 11.49-42.36 22.58-63.37 34.16-13.31 7.34-26.3 15.27-40.06 23.13a7.45 7.45 0 0 0-1.84 2.07c-.07 2.03-.14 4.06-.32 6.9-.2 18.83-.29 36.86-.8 54.94-3.05-.8-5.92-1.22-8.3-2.53-17.33-9.54-34.57-19.25-51.85-28.9-13.66-7.64-27.29-15.37-41.02-22.9-11.6-6.35-23.43-12.27-34.93-18.8-8.87-5.01-17.38-10.66-26.01-16.35 2.52-2.44 4.74-5.01 7.53-6.6 17.01-9.69 34.15-19.17 51.25-28.7 11.16-6.23 22.32-12.49 33.51-18.66 12.03-6.63 24.16-13.08 36.15-19.78 10.71-5.98 21.26-12.26 31.97-18.25 2.9-1.63 3.7-3.83 3.68-6.95-.1-18.49-.04-36.98-.11-55.46 0-1.4-.65-2.78-1-4.17zm-.02 260.15c.12 2.97.35 5.95.36 8.93.18 52.54.3 105.08.56 157.62.04 6.96-.29 13.3-8.5 15.63-.96.27-1.76 1.1-3.35 1.8a1542.7 1542.7 0 0 0-31.06 16.9c-16.05 8.94-32.08 17.94-48.13 26.88a2215.6 2215.6 0 0 1-21.73 11.97 666.93 666.93 0 0 1-25.14 13.09c-3.98-3.37-3.83-.4-4.12 2.52a61.95 61.95 0 0 1-8.04 4.4c-1.1.51-1.98 1.26-3.17 2.12-1.07.45-1.84.8-2.99 1.12-2.93-.02-5.5-.02-8.88-.02-.27-60.3-.55-121.1-.43-181.92 3.02-.96 5.8-1.61 8.22-2.9 8.93-4.76 17.74-9.74 26.61-14.6 9.74-5.34 19.52-10.62 29.26-15.96 12.7-6.95 25.36-13.95 38.05-20.89 10.72-5.86 21.49-11.64 32.2-17.52 9.3-5.12 18.56-10.33 27.29-15.2 1.14 2.32 2.07 4.17 2.99 6.02z"/>
  <path fill="#FFF" d="M1381.03 1245.18c8.35-4.48 16.72-8.93 25.06-13.45a2215.6 2215.6 0 0 0 21.73-11.97c16.05-8.94 32.08-17.94 48.13-26.88 10.1-5.63 20.23-11.2 30.7-16.8.35 1.64.26 3.31.37 4.97.24 3.57-.19 6.27-4.9 6.16-1-.02-2.86 2.2-2.96 3.48-.23 3.06-1.83 3.8-4.4 4.34-4.97 1.05-10.84.44-13.35 6.68-.29.71-1.94 1.1-3 1.23-3.65.44-7.31.7-11.25 1.06.52 5.5-1.53 7.18-6.55 7.24-3.8.05-7.42 1.68-10.45 5.35-2.02 2.44-7.03 2.77-10.8 3.26-2.64.34-3.6 1.04-4.89 3.53-2.2 4.26-7.9 5.81-9.55 11.18-.26.82-5.6.36-8.53.02-3.64-.4-5.21.94-5.42 4.56-.73 12.88-.77 12.97-13.87 12.81-4.63-.06-9.35-.22-13.84-1.2-3.93-.85-4.18.88-4.29 3.81-.5 13.8-4 15.7-19.3 13.4-7.92-1.2-16.17-.24-24.26-.23-2 0-4.3.76-5.88 0-1.52-.75-3.43-3.21-3.2-4.6 1.6-9.82.66-11.48-8.9-12.04-3.53-.2-6.12-.46-8.09-4.24-.92-1.77-4.88-1.95-7.79-2.97-.3 1.7-.15 3.09-.77 3.85-.8.98-2.36 2.16-3.33 1.96-.96-.2-2.14-1.93-2.27-3.1-.35-3.05-.12-6.16-.2-9.24-.08-2.65-1.3-3.66-3.9-2.5-.6.27-1.27.39-1.91.57-6.97 1.95-9.56.1-10.6-7.6-6.02-.01-11.03-1.71-15.25-6.58-1.6-1.84-5.65-2.01-8.62-2.15-6.8-.3-6.9-.19-6.33-6.8-4.6-.29-8.14-2.03-9.9-6.8-.46-1.2-2.87-2.32-4.42-2.36-3.95-.12-7.92.37-11.88.67-3.85.29-7.02-.1-7.29-5.13a4.49 4.49 0 0 0-2.36-3.23c-2.89-1.12-5.79-1.9-5.82-5.78-5.8-.93-8.99-6.03-13.8-8.47-.75-.38-2.62 1.4-3.94 2.23-1.25.78-2.45 1.63-3.67 2.44-.7-1.29-1.85-2.52-2.03-3.88-.4-2.88-.17-5.83-.41-8.74-.55-6.59-1.75-13.16-1.77-19.74-.13-65-.06-130-.12-195-.01-5.62-.63-11.25-.99-16.87-.04-.64-.08-1.55-.48-1.86-6.88-5.34-5.46-12.77-4.88-19.86.3-3.66-.9-4.94-4.72-4.8-4.99.2-10 .07-14.99-.28-1.01-.07-2.78-1.86-2.7-2.73.3-3.74-2.36-4-4.72-5.26-1.85-1-2.92-3.37-4.56-4.9-1.26-1.16-2.86-2.78-4.32-2.8-4.95-.04-9.9.73-14.87.8-5.22.09-6.16-1.65-4.6-6.75.44-1.4-.06-3.07-.14-4.69-7.42 1.54-7.42 1.54-8.55-5.5-2.13 0-4.42.2-6.66-.05-3.46-.4-7.08-.6-7.04-5.8 0-.88-3.18-2.77-4.58-2.5-3.48.65-5.03-.06-5.24-3.73-.2-3.46-2.23-4.34-5.55-3.61-8.11 1.78-10.26.33-11.97-8.31-3.25 0-6.7.19-10.1-.1-1.41-.11-3.96-1.38-3.91-1.92.58-6.05-4.36-6.67-8.1-8.5-5.94 4.53-7.4 3.76-8.87-5.14-4.1.09-6.47-2.14-7.66-6.15-.29-.95-2.22-2.01-3.38-2-6.54.1-13.07.61-19.6.76-2.91.07-4.6.64-5 4.05-.16 1.36-2.33 3.11-3.9 3.56-3.22.9-6.65 1.04-9.99 1.5-.33.05-.89.1-.93.25-2.4 9.13-11.43 3.62-16.22 7.54-1.87 1.54-1.55 6.22-6.1 6.61-.96.09-2.4 2.09-2.49 3.3-.38 4.8-3.28 5.25-6.94 4.4-8.74-2-9.44.91-11.12 8.83l-3.65-4.59c-2.44 1.23-5.1 2.3-7.43 3.85-1.29.87-2.73 2.49-2.87 3.89-.3 3.12-1.82 3.98-4.58 3.88-2.33-.1-4.67-.04-7-.02-4.61.06-6.16 1.9-5.46 6.52.18 1.14.7 2.24.83 3.38.55 4.6-1.43 7.1-6.08 7.04-6.8-.1-13.59-.82-20.37-.78-1.57.01-3.98 1.71-4.5 3.17-1.32 3.63-3.46 4.94-7.13 4.7-2.97-.18-5.96-.03-9.13-.03-1.24 3.87-2.16 7-6.52 9.11-3.22 1.55-4.9 6.67-9.4 7.87-.3.08-.6.84-.6 1.27.15 6.8.34 13.61.54 20.41.02.83.24 1.65.24 2.48.02 23.5.13 47-.03 70.5-.1 14.29-.7 28.58-.92 42.87-.15 8.94-.03 17.88-.03 26.82 0 11.08.13 22.16-.04 33.24-.13 8.7-.75 17.4-.89 26.11-.05 3.62.82 7.24.89 10.87.14 7.74.02 15.5.05 23.24.01 4.44-2.28 6.4-6.56 6.2-5.46-.27-10.92-.79-16.38-.88-2.76-.04-5.54.6-8.48.96-1.33 11.37-10.38 5.52-16.26 7.44-.13 4.02-.2 8.16-6 8.03-.74-.02-2.2 1.8-2.19 2.76.04 3.99-2.33 4.65-5.51 4.72-2.93.07-5.86.31-9.4.52.14 8.44-5.92 7.91-11.92 7.46-2.97-.23-5.26.22-5.57 3.97-.09 1.03-1.32 2.48-2.33 2.82-3.84 1.3-7.83 2.15-11.72 3.3-.87.26-2.22.98-2.27 1.57-.38 4.6-3.55 4.13-6.82 4.45-4.11.41-9.53-.54-9.88 6.18-6.44 2.04-8.28 12.1-17.3 9.77-2.42-.63-4.28.23-5.4 3.03-2.05 5.12-5.43 6.81-10.7 5.45-2.98-.78-4.54-.4-5.7 2.74-.58 1.53-2.66 3.33-4.24 3.52-5.98.75-12.04.92-18.08 1.25-1.66.09-3.33-.09-5-.04-4.4.12-9 .73-9.55-5.7-.04-.48-1.15-1.13-1.85-1.26-3.48-.63-5.32-2.41-5-6.16.06-.7-.41-1.83-.98-2.14-5.12-2.77-10.31-5.4-16.01-8.36-.48 1.85-.45 2.97-1 3.55-1.05 1.13-2.44 1.96-3.68 2.91-.54-1.6-1.85-3.42-1.48-4.76 1.29-4.59-1.37-9.16-5.99-9.04-4.7.12-8.57-.47-11.68-4.91-1.38-1.96-5.25-2.17-8.35-3.3-.34 1.45-.27 2.62-.82 3.19-1.08 1.11-2.5 1.9-3.78 2.8-.57-1.47-1.76-3.03-1.6-4.42.3-2.6 1.38-5.12 2.5-8.92-2.9-.43-5.73-1.54-8.32-1.12-8.75 1.4-10.03.72-11.15-7.78-9.44-2.2-17.7-6.91-25.43-13.35l-3.27 2.24.42-1.38c-2.13-1.05-4.33-1.96-6.36-3.17a18.33 18.33 0 0 1-4.51-3.55c-1.05-1.22-1.2-3.87-2.32-4.27-2.86-1.01-6.04-1.15-9.1-1.58-.46-.06-.96.28-1.44.38-11.24 2.45-12.61-.15-11.58-9.25.34-3.02-.77-5.14-4.14-5.7-4.28-.71-6.3-3.2-5.88-7.71.26-2.78.05-5.6.05-8.78-6.29.02-7.06-3.79-7.05-8.67.08-60.33.05-120.66.05-181 0-10.41.09-20.83-.04-31.24-.05-4.58.96-7.98 6.32-7.86 1.37-6.34-5.24-13.4-11.4-12.49-.5.07-.94.37-1.42.47-6.78 1.4-7.77.63-9.01-7.37-4.4.36-7.85-.78-8.26-6.23-.06-.79-2.65-1.95-4.08-1.97-3.96-.05-7.93.37-11.89.68-3.84.3-7.06-.03-7.32-5.07-.05-.99-1.22-2-2.03-2.85-2.37-2.5-4.83-4.92-7.25-7.37l.83-1.67c-4.92.26-9.84.51-14.76.79-1.65.1-3.31.43-4.95.34-4.12-.24-5.4-2.52-3.84-6.36.4-1 .77-2.15.72-3.2-.24-4.66-2.13-7.28-7.44-6.47-4.31.65-7.88-.28-10.52-4.75-1.15-1.94-5.1-2.23-8.13-3.42-.28 1.7-.11 2.92-.65 3.53-.95 1.06-2.32 1.75-3.52 2.59-.73-1.27-1.87-2.47-2.11-3.83-.38-2.19-.25-4.48-.18-6.73.14-4.59-2.77-4.2-6.03-4.25-4.7-.08-9.38-.77-14.05-1.3-.55-.06-1.49-.79-1.46-1.16.36-5.4-3.58-4.74-6.96-5.47-1.4-.3-3.34-2.46-3.39-3.83-.13-4.21-2.55-4.58-5.67-4.27-1.97.2-3.9.77-5.87.93-4.03.33-5.7-1.67-5.67-5.67.1-11.25-.1-22.5.07-33.74.14-9.8.77-19.58.89-29.38.05-4.45-.83-8.9-.88-13.37-.14-10.85-.16-21.7-.02-32.55.24-18.96.74-37.91.91-56.87.05-5.79-.86-11.58-.86-17.37 0-4.4.1-8.98 1.42-13.08.6-1.87 4.23-2.78 7.05-4.48 1.36-6.45 1.36-6.47 9.19-6.45 3.64 0 7.49.81 7.72-5.03.04-1.06 3.69-2 5.7-2.95 3.22-1.5 6.57-2.78 9.67-4.5 2.36-1.31 4.42-3.17 7.75-5.61-1.17-13.06 10.28-3.38 15.51-6.43 3.25-8.87 3.52-9 15.35-6.88.44-.8 1.24-1.61 1.34-2.5.64-5.43 3.23-7.45 8.82-6.23 3.38.73 7.14.83 7.64-4.5.11-1.19 1.92-2.56 3.25-3.24 4.46-2.3 8.88-5.14 13.67-6.26 4.85-1.13 7.05-3.2 7.17-8.02.01-.6 1.35-1.6 2.15-1.69 4.24-.43 8.5-.63 13.1-.94.12-.82.45-1.92.39-3-.18-3.38 1.57-4.37 4.63-4.26 3.47.13 6.96.03 10.31.03 2.72-7.9 2.72-7.98 11.48-7.96 3.11 0 5.31-.21 6.07-4.15.3-1.57 3.33-3.65 5.13-3.66 3.74-.03 5.82-1.9 8.55-3.96 4.08-3.07 9.14-4.81 13.7-7.28 1.6-.86 2.8-2.68 4.45-3.22 4.7-1.53 7.79-4.24 9.96-8.86.6-1.28 5.22-.8 8-.87 3.07-.09 5.42-.49 6.07-4.31.72-4.26 4.28-4.15 7.5-3.57 4.05.72 6.18-.3 7.56-4.64.63-2.01 4.74-4.58 6.7-4.17 4.07.85 7.11-.84 8.77-3.22 2.67-3.81 5.82-4.46 9.82-4.14 4.03.32 5.75-1.13 7.93-5.21 2.02-3.77 7.46-6.1 9.95-10.6.29-.53 2.21-.22 3.37-.17 4.66.22 8.74.3 11.84-4.76 1.33-2.16 6.01-2.71 9.28-3.11 3.07-.38 5.22-.74 4.99-4.47-.18-2.87 1.54-3.75 4.12-3.68 2.67.07 5.36.2 8-.08 1.3-.14 3.22-.87 3.64-1.85 2.9-6.83 9.32-7.85 15.18-10.27a24.06 24.06 0 0 0 9.67-7.55c2.61-3.52 5.07-5.2 9.43-4.46 1.99.34 4.13-.25 6.17-.42-.23-7.35-.23-7.35 6.68-7.36h7.66c.31-13.96 10.49-6.9 17-8.28.15-5.69 2.57-8.73 8.7-7.86 1.18.16 2.9-1.2 3.88-2.3 3.03-3.4 5.83-6.98 11.42-6.72.14-6.53 4.3-7.35 9.53-6.88 3.52.3 7.25.72 7.21-4.86 0-1.01 2.1-2.59 3.46-2.93 2.53-.63 5.34-1.1 7.83-.62 3.28.62 4.48-.43 4.36-3.42-.13-3.44 1.74-4.31 4.72-4.15 1.83.1 3.68-.13 5.5.05 3.4.33 5.71-.6 6.8-4.22 1.24-4.18 4.86-4.4 8.16-3.51 4.68 1.27 6.9-.46 7.82-4.86.2-.93.67-2.58 1.05-2.59 4.63-.13 5.75-3.8 7.75-6.87.77-1.19 3.09-1.72 4.77-1.9 2.92-.3 5.9-.08 9.13-.08-.33-12.64 9.47-6.1 14.54-8.5 2.27-8.47 2.27-8.6 11.3-8.44 3.38.06 5.46-.5 6.66-4.2.47-1.48 3.5-2.56 5.53-3 2.2-.46 4.66.32 6.93 0 1.17-.16 3.16-1.58 3.1-2.32-.36-5.05 3.07-5.6 6.58-5.83 1.94-8.11 2.13-8.11 10.27-7.79 3.54.15 7.46.58 7.75-5.19.07-1.32 3.5-3.09 5.6-3.54 2.87-.61 5.96-.15 8.83-.15 3.08-7.02 4.66-7.68 12.83-6.47 1 .15 2.88-1.33 3.29-2.45 2.25-6.1 4-7.45 10.41-6.44 3.73.6 6.11.56 7.32-4.1.57-2.22 4.18-3.66 6.7-5.67-.35-5.42.03-5.74 6.07-5.95 2.63-.1 5.3-.46 7.84-1.1 1.04-.26 2.58-1.58 2.57-2.4-.02-4.5 2.84-4.27 6.05-4.56 5.07-.46 10.25-2.4 14.22 3.27a4313.92 4313.92 0 0 1-63.14 35.42c-12.2 6.76-24.4 13.55-36.66 20.23-10.34 5.63-20.8 11.03-31.13 16.69-11.32 6.2-22.5 12.66-33.82 18.88-10.9 6-21.93 11.74-32.81 17.77-7.78 4.3-15.38 8.91-23.08 13.34-9.1 5.25-18.15 10.59-27.37 15.64-16.24 8.9-32.67 17.48-48.89 26.44-13.42 7.4-26.6 15.28-40 22.72-12.07 6.7-24.35 13.02-36.46 19.63-12.8 7-25.47 14.2-38.27 21.2-9.45 5.16-19.08 9.98-28.5 15.2-8.5 4.71-16.77 9.82-25.2 14.62-4.93 2.8-10.02 5.29-14.98 8.02-7.86 4.33-15.64 8.81-23.5 13.13-9.19 5.05-18.47 9.93-27.65 15-14.32 7.89-28.58 15.88-42.88 23.8-8.58 4.76-17.15 9.53-25.79 14.18-13.06 7.05-26.26 13.84-39.25 21.03a701.5 701.5 0 0 0-27.63 16.34c-.89.54-.88 2.56-1.5 4.37a42.96 42.96 0 0 0-1.56 4.6 90.73 90.73 0 0 1-1.2 8.8c-.11 1.74.06 3.26.24 5.25-.01 51.6.22 102.74-.25 153.86-.07 8.38 3.08 13.02 9.83 16.52 8.5 4.4 16.95 8.9 25.33 13.5 11.32 6.24 22.47 12.79 33.84 18.93 17.45 9.42 35.12 18.44 52.52 27.94 13.38 7.3 26.45 15.15 39.75 22.58 4.42 2.47 7.6 5.5 7.93 10.83.29 4.64.85 9.26.9 13.9.14 14.48.1 28.98.11 43.89l.06 5.08c-.01 58.77.04 117.08-.1 175.39-.02 4.95 1.9 8.38 5.73 10.85a368.3 368.3 0 0 0 18.6 11.3c15.3 8.62 30.7 17.07 46.07 25.54 11.47 6.32 23 12.54 34.45 18.87 11.02 6.1 21.9 12.45 33.01 18.35 9.33 4.95 18.91 9.42 28.55 14.4 1.37.07 2.72.12 3.74-.44 12.2-6.66 24.29-13.5 36.52-20.1 9.72-5.25 19.71-10 29.36-15.36 9.4-5.22 18.41-11.14 27.79-16.4 16.3-9.17 32.75-18.1 49.18-27.03 4.24-2.31 8.68-4.25 12.97-6.48 5.05-2.63 8.86-5.34 8.53-12.57-.75-16.28-.19-32.62-.2-48.94-.05-38.64-.13-77.27.07-116.15.08-2.07-.1-3.89-.32-6.18-.02-21.94.5-43.42-.2-64.86-.26-8 3.48-11.41 9.43-14.6 11.07-5.91 21.99-12.12 33-18.14 12.99-7.1 26.01-14.1 39-21.18 12.72-6.92 25.44-13.82 38.1-20.82 10.72-5.93 21.36-12 32.04-17.99a823.22 823.22 0 0 1 15.54-8.56c1.13-.2 1.95-.38 3.09-.41 1.18.44 2.05.74 3.18 1.06.45.05.63.07.88.43 2.33 1.4 4.6 2.46 7.09 3.8 11.05 5.92 21.97 11.41 32.7 17.25a6673.9 6673.9 0 0 1 57.89 31.91 4793.56 4793.56 0 0 1 62.68 35.32c2.45 1.42 3.8 4.76 5.62 7.66l.02 8.06c.35 17.45.71 34.46 1.04 51.83.26 1.47.56 2.58.85 4.13-.3 4.75-.87 9.05-.85 13.35.23 54.57.67 109.14.63 163.7 0 5.28 1.8 7.98 5.82 10.24 26.87 15.1 53.68 30.29 80.6 45.27 12.71 7.07 25.7 13.63 38.44 20.63 9.86 5.42 19.47 11.28 29.33 16.69 3.5 1.93 7.44 3.1 11.47 4.78 4.07-1.59 7.84-3.34 11.61-5.1.78-.34 1.55-.69 2.94-1.11 1.43-.69 2.24-1.3 3.06-1.9 2.54-1.46 5.09-2.92 8.17-4.65 1.65-.9 2.75-1.53 3.86-2.16M503 1117.04v17.29l1.46-.05v-19.6l-.84-.11c-.2.54-.4 1.08-.62 2.47m0-96.42.7 2.86 1.11-.12v-4.12a3.1 3.1 0 0 0-1.8 1.38m.23-56.64.47 2.53 1.39-.52c-.47-.83-.94-1.66-1.86-2.01m-75.36-87.25 1.63-.58-.38-.84c-.56.33-1.12.65-1.25 1.42z"/>
  <path fill="#595A60" d="M614.37 1438.17c.32 12.93.65 25.87.94 39.66.23 2.95.5 5.05.76 7.14.27 24.79.48 49.58.9 74.36.07 4.53-.86 5.79-5.9 5.35-9.07-.8-18.26-.23-27.94-.23 0-27.44 0-54.48.11-82.33 0-3.9-.13-7-.26-10.1.02-26.7.04-53.41.22-80.82a48.5 48.5 0 0 1 1.8-4.18c11.32.1 22.64.2 33.97.33 3.04.04 6.15-.15 9.1.42 1.11.2 2.25 2.13 2.72 3.5 2.07 6.07 3.66 12.31 5.87 18.33 4.17 11.36 8.82 22.54 12.93 33.92 2.5 6.94 4.06 14.2 6.55 21.14 3.2 8.9 7.06 17.55 10.33 26.42 2 5.43 3.32 11.11 5.17 16.6.46 1.36 1.81 2.42 2.75 3.63 1.1-1.1 2.68-2 3.24-3.33a537 537 0 0 0 8.58-21.6c2.87-7.7 5.48-15.5 8.2-23.26 6.68-19 13.42-37.99 20-57.03 1.79-5.15 2.87-10.56 4.82-15.64.56-1.46 3.02-3.07 4.63-3.1 12.82-.18 25.65.22 38.47-.04 4.83-.1 5.7 1.74 5.7 6.07-.1 52.13-.03 104.26 0 156.39v14.46h-13.45c-5.83 0-11.66.05-17.49-.06-1.17-.02-2.34-.69-3.54-1.86-.12-1.06-.2-1.3-.27-1.55.29-22.82.67-45.64.84-68.46.14-18.23.03-36.46.03-55.46-1.84 3.6-3.93 6.83-5.17 10.36-1.78 5.1-2.62 10.53-4.47 15.6-2.25 6.15-5.46 11.94-7.65 18.1-3.93 11.1-7.19 22.42-11.14 33.5-2.68 7.52-6.23 14.72-9.1 22.18-3.05 7.97-5.62 16.14-8.75 24.09-.6 1.55-2.71 3.44-4.24 3.54-5.63.37-11.31.1-16.98-.02-2.43-.04-3.78-.76-4.82-3.67-8.16-22.91-16.8-45.64-25.13-68.5-4.98-13.65-9.57-27.45-14.47-41.13-1.48-4.1-3.43-8.04-5.3-12.76-.7-1.7-1.28-2.7-1.85-3.71l-1 .3.29 3.45z"/>
  <path fill="#44454C" d="M1518.02 991.58a46.4 46.4 0 0 1-3.07-5.6c-8.73 4.86-17.99 10.07-27.3 15.19-10.7 5.88-21.47 11.66-32.19 17.52-12.7 6.94-25.36 13.94-38.05 20.9-9.74 5.33-19.52 10.61-29.26 15.95-8.87 4.86-17.68 9.84-26.6 14.6-2.44 1.29-5.21 1.94-8.23 2.42-.43-8.27-.37-16.08-.54-23.89-.04-1.6-.97-3.18-1.54-5.12a5.77 5.77 0 0 1 .35-2.5c.1-1.12-.1-2.15-.35-3.63-.08-48.78-.1-97.1.11-145.58.41-.5.59-.85 1.11-1.15 1.07.06 1.78.06 2.49.06 8.66 5.36 17.17 11 26.04 16.03 11.5 6.52 23.34 12.44 34.93 18.8 13.73 7.52 27.36 15.25 41.02 22.89 17.28 9.65 34.52 19.36 51.86 28.9 2.37 1.3 5.24 1.74 8.36 2.74.49.48.64.71.91.86.02 3.4.03 6.8-.05 10.61z"/>
  <path fill="#595A60" d="M1185.89 1422.98c7.18-9.55 14.7-18.86 21.42-28.73 3.93-5.79 8.62-8.03 15.31-7.1 2.12.28 4.3.03 7.29.04 1.58-.06 2.34-.12 3.09-.19h20.9l.8 1.47c-2.97 3.99-5.84 8.06-8.95 11.95a16065.6 16065.6 0 0 1-49.48 61.57c-3.28 4.06.14 6.77 1.82 9.51 4.1 6.7 8.68 13.1 13.42 20.17 1.33 1.96 2.31 3.36 3.29 4.77 5.69 8.72 11.4 17.42 17.05 26.16 8.73 13.47 17.42 26.96 26.97 41.75-4.79 0-8.33-.04-11.88 0-8.83.13-17.66.47-26.48.29-1.86-.04-4.35-1.5-5.4-3.07-6.5-9.66-12.65-19.54-18.93-29.34-5.79-9.03-11.65-18.02-17.37-27.1-1.46-2.32-2.43-4.94-3.75-7.36-2.4-4.4-4.3-4.87-7.91-1.51a222.55 222.55 0 0 0-12.34 12.42c-2.87 3.14-3.9 6.98-3.82 11.35.2 13 .08 26 .09 38.99v5.2h-34.71v-176.95c6.85 0 13.28 0 20.53.11 3.94.04 7.09-.03 10.23-.1.75.05 1.5.1 2.74.23l.86.11c.1 17.98.19 35.97.32 53.95.04 5.5.18 10.98.3 17.22.3 1.8.58 2.83.85 3.88l.76 2.4 29.8-37.67c.52-.7.69-1.02.86-1.34l.57-.51a32.7 32.7 0 0 0 1.75-2.57z"/>
  <path fill="#5A5B5F" d="M1590.97 1471.9c1.09.03 2.17.07 3.88.25 1.8 0 2.96-.13 4.12-.27 8.38 0 16.76.02 25.92.22 5.6.34 10.41.48 15.23.63.07 21.31.29 42.63.04 63.94-.04 2.91-1.66 6.74-3.86 8.53-15.81 12.85-34.26 19.62-54.46 20.55-10.27.48-21.09.48-30.86-2.22-16.14-4.46-31.13-12.6-39.99-27.6-9.11-15.41-16.97-31.57-14.75-50.63.76-6.55-.15-13.28-.22-19.93-.13-12.87 2.81-24.99 7.43-37.04 5.7-14.88 16.03-25.41 28.5-34.4 6.05-4.38 13.36-5.32 20.4-6.65a100.6 100.6 0 0 1 47.57 2.23c19.1 5.69 31.37 18.96 36.1 38.69.8 3.35 1.82 6.64 2.31 10.36-6.93.77-13.56.47-19.86 1.78-3.11.64-7.35-2.28-9.53 2.23-1.03-1.09-2.33-2.03-3.07-3.3-2.7-4.66-5.14-9.46-7.8-14.15-4.66-8.2-12.54-10.83-21.18-11.08-6.83-.2-14.01-1.91-20.42 1.9a60.1 60.1 0 0 0-10.44 7.62c-8.63 8.08-12.87 18.44-13 30.05-.18 15.6-.25 31.29 1 46.83 1.43 17.78 16 37.04 38.3 36.57 10.7-.23 21.37.11 30.03-7.52 1.64-1.44 3.1-4 3.2-6.1.36-7.14.03-14.31.05-21.47.01-4.06-2.13-5.5-5.91-5.48-8.66.03-17.32-.04-26.5-.35-.85-.52-1.18-.77-1.5-1.01.06-1.43.13-2.85.37-4.81a6.48 6.48 0 0 0-.32-2.21c.04-2.05.08-4.1.24-6.92 1.24-8.53 1.24-8.47 9.23-8.59 3.25-.04 6.5-.42 9.75-.65z"/>
  <path fill="#595A5E" d="M496.06 1462.98c0 8.37-.01 16.73-.2 25.82-.31 1.56-.45 2.4-.6 3.24a71.42 71.42 0 0 1-12.32 37.55c-6.86 10.16-15.13 19.32-26.3 24.63-12.13 5.77-25.06 9.77-38.69 9.99-17.32.28-34.65.07-51.97.06-.96 0-1.92-.17-2.96-.26 0-58.23 0-116.16.17-174.75a9.45 9.45 0 0 1 1.13-2l.86.03c.93-.08 1.37-.16 1.82-.24 15.63.04 31.25.22 46.88.09 16.98-.14 33.14 2.93 47.56 12.25 9.57 6.17 17.2 14.5 23.22 24.16 6.57 10.52 9.36 22.3 10.68 35.25.23 1.9.48 3.04.72 4.18m-99.15 56.51c.04 3.83.17 7.66.09 11.49-.07 2.92 1.2 4.37 4.1 4.33 8.3-.14 16.68.33 24.9-.6 14.53-1.64 24.85-10.34 29.66-23.53 7.8-21.44 7.41-43.53 2.49-65.86-3.46-15.67-20.5-31.66-38.75-30.73-4.65.23-9.32-.05-13.98.02-8.5.14-8.5.17-8.5 8.5v96.38z"/>
  <path fill="#595A60" d="M1438.01 1387.13c1.71.01 3.42.03 5.77.2 1.5.04 2.37-.09 3.23-.21h21.4v5.88c0 36.83.31 73.66-.2 110.49-.12 9.27-1.17 19.24-4.8 27.6-7.03 16.21-20.7 26.04-37.4 31.73-8.93 3.04-18.02 3.77-27.3 2.81-7.37-.76-15.1-.59-22-2.9-15.11-5.1-28.12-13.32-35.98-28.3-4.93-9.39-6.51-18.97-6.39-29.4.35-29.32.2-58.65.24-87.97v-29.98c10.2 0 20.36-.03 30.5.02 3.49.01 3.7 2.39 3.7 5.13.03 18.83.18 37.66.24 56.5.06 17.16-.08 34.32.16 51.49.08 5.27.92 10.56 1.8 15.78 1.98 11.63 9.53 17.82 20.62 20.22a44.04 44.04 0 0 0 24.82-1.76c8.8-3.22 13.24-10.48 15.56-18.9 1.43-5.15 1.94-10.7 1.97-16.08.17-36.83.1-73.65.44-111.05a11.66 11.66 0 0 1 3.62-1.3z"/>
  <path fill="#58595D" d="M975.02 1538v26.23c-4.65 0-9.06-.03-13.47 0-5.66.05-11.32.2-16.99.18-3.41 0-6.82-.15-4.29-5.26.54-1.1.23-2.63.23-3.96.05-44.47.1-88.95.1-133.43.01-7.35-.05-7.4-7.47-7.47-13.82-.1-27.65-.26-41.48-.12-4.13.04-4.82-1.49-4.6-5.3.41-6.95.12-13.95.12-21.18h141.7v26.83c-11.06 0-21.82-.02-32.59 0-5 .01-10 .3-14.99.08-4.77-.2-6.31 1.7-6.3 6.46.14 38.81.05 77.63.03 116.94z"/>
  <path fill="#FFF" d="M1687.4 642.95c-.8-4.55-2.8-7.86-8-8.94-8.62-4.74-16.84-9.45-25.1-14.07-9.86-5.51-20.4-10.09-29.36-16.8-4.65-3.48-9.91-4.79-14.6-7.7-11.28-6.99-23.32-12.75-34.97-19.16-9.28-5.1-18.4-10.48-27.66-15.64-5.68-3.17-11.5-6.1-17.21-9.23a2164.83 2164.83 0 0 1-37.17-20.82 12.72 12.72 0 0 0-2.48-1.5s-.45-.08-.69-.58a25.1 25.1 0 0 0-4.75-2.14 2.76 2.76 0 0 1-1.25-.88 7.99 7.99 0 0 0-2.6-1.24c-6.27-3.35-12.58-6.62-18.8-10.05-8.78-4.85-17.5-9.8-26.23-14.72-12.1-6.81-24.13-13.76-36.3-20.42-14.8-8.1-29.77-15.84-44.53-23.97-12.03-6.62-23.83-13.65-35.8-20.38-9.57-5.38-19.23-10.62-28.88-15.86-9.9-5.38-19.92-10.53-29.73-16.06-15.18-8.54-30.16-17.42-45.36-25.94-8.59-4.81-17.48-9.08-26.15-13.76-12.83-6.92-25.9-13.46-38.25-21.14-10.26-6.38-21.19-11.35-31.66-17.24-4.02-2.27-7.9-4.78-11.94-7.03-6.57-3.7-13.24-7.23-19.83-10.9-13.93-7.8-27.8-15.71-41.77-23.44a1757.24 1757.24 0 0 0-29.38-15.8c-1.28-.67-2.82-.85-4.62-1.3 5.22-4.93 12.09-4.4 18.68-4 1.74.12 4.45 2.78 4.72 4.58.62 4.02 2.46 4.58 5.81 3.87 6.92-1.45 7.64-.93 9.6 5.74.26.9 1.48 2.22 2.14 2.15 6.23-.6 6.61 3.24 6.02 7.78 2.58.13 4.96.35 7.33.34 4.27-.02 7.42.81 9.1 5.7.56 1.6 5.15 2.25 7.96 2.49 3.88.32 8-.56 7.58 5.6-.05.76 2.2 2.13 3.56 2.4 2.08.4 4.38-.23 6.45.22 1.77.39 4.45 1.36 4.82 2.63 1.46 5.08 4.92 5.6 9.25 5.29 4.07-.3 8.33-.8 7.98 5.63-.04.7 2.7 2.21 4.14 2.22 5.36.02 10.61-.27 12.02 6.73.1.49.97.8 1.46 1.23l6.46 5.65-.77 1.3c4.76.4 9.51 1.04 14.28 1.16 7.81.2 8.4.47 10.85 7.81 3.9-.23 6.74 1.08 8.08 5.41.4 1.33 3.21 2.53 5.03 2.7 4.7.48 10.04-.7 10.6 6.53.04.61 1.81 1.06 2.76 1.62 1.6.96 3.18 1.94 4.07 2.48l7.03-2.18 2.29 7.52c.38.03 2.15-.32 3.44.31 1.52.74 3.65 2.26 3.73 3.56.24 3.71 2.08 4.5 5.21 4.31 2-.11 4 .08 6-.04 3.15-.19 5.25.6 5.02 4.34-.18 2.86 1.52 3.77 4.1 3.69 2.17-.06 4.5-.5 6.46.15 1.94.64 4.66 2.17 5.03 3.78 1.25 5.37 5.03 5.25 8.81 4.7 6.07-.91 6.82-.59 7.93 5.64 9.94 2.43 18.2 7.57 26.9 17.39 2.82 1.45 12.01-2.34 13.25 8.4 2.58-.2 5.02-.24 7.41-.58 4.15-.6 7.56.83 8.8 4.67 1.33 4.1 4.03 4.03 7 3.38 4.33-.95 7.3.25 8.24 4.68.67 3.13 2.38 3.98 5.31 3.82 3.3-.18 6.8-.77 7.1 4.5.05 1.08 2.96 2.54 4.73 2.87 4.61.86 7.89 2.58 7.08 8.59 2.55 0 4.67.03 6.78 0 4.45-.08 8.34.47 9.4 5.98.16.86 2.2 1.75 3.48 1.93 2.29.31 4.8-.39 6.94.26 1.93.58 4.58 2.12 4.98 3.72.92 3.7 2.95 4.39 6.14 4.13 1.66-.13 3.34.06 5-.04 3.07-.19 5.18.45 5.2 4.22.03 2.82 1.8 4.02 4.69 3.84 2.32-.15 5.27-.86 6.87.24 4.57 3.15 7.53 8.19 12.19 11.42.7.49.35 2.47.5 3.75 3.16.2 6.07.42 8.98.54 3.58.14 6.6.67 6.9 5.35.05.95 2.13 2.3 3.44 2.53 2.43.42 5.12-.38 7.43.3 1.84.53 4.38 2.3 4.64 3.85.57 3.36 2.13 4.15 5.04 4 1.83-.1 3.67.07 5.5-.04 3.08-.18 5.04.94 5.9 4.08.8 2.85 2.28 4.45 5.87 3.53 6.42-1.66 7.46-.85 10.16 5.35.35.8 1.3 1.38 2.06 1.92 2.87 2.05 6.21 3.64 8.54 6.16 2.06 2.23 3.75 3.27 6.8 2.72 3.12-.56 5.75.17 6.56 4.12.26 1.23 2.15 2.42 3.55 3.04 1.45.65 3.24.85 4.85.77 5.55-.3 7.75 2.69 7.75 8.33 2.43 0 4.56.05 6.67-.01 4.7-.13 9.59-.85 10.37 6.05.1.8 2.56 1.66 4.01 1.88 2.12.32 4.32.14 6.49.07 2.58-.08 3.98.83 4.2 3.67.22 3.06 5.93 6.54 8.9 5.72 7.04-1.96 7.56-1.5 6.6 5.9 8.63 2.08 8.63 2.08 7.67 8.72 2.99 0 5.9.23 8.75-.05 4.77-.47 7.98.58 7.18 6.42 2.32.49 4.4 1.36 6.46 1.27 5.74-.23 9.33 2.01 11.3 7.58.39 1.09 3.88 2.01 5.52 1.54 4.96-1.41 8.1-.25 9.6 4.81.19.61.57 1.6.96 1.64 6.92.94 10.38 8.63 17.72 8.96 1.5.07 3.54 1.95 4.22 3.48 1.62 3.71 4.24 4.74 7.92 4.36 4.8-.48 9.07-.08 10.13 5.98.14.78 1.52 1.37 2.36 1.98 1.52 1.09 4.34 2.08 4.38 3.2.1 3.06 2.24 7.32-3.32 8.78z"/>
  <path fill="#58595D" d="M865.58 1478.09v23.63h-67.4v-26.34c22.14 0 44.34 0 66.85.64.4 1.11.47 1.59.55 2.07z"/>
  <path fill="#595A5E" d="M1016.92 1493.93v-18.28h67.18v25.96h-67.18v-7.68z"/>
  <path fill="#FFF" d="M1668.34 1720c3.31.01 6.93.72 6.94-4.6 0-.8 2.43-2.28 3.6-2.16 1.12.12 2.8 1.8 2.95 2.98.42 3.1.27 6.3.12 9.46-.26 5.2-5.02 2.3-7.05 3.67-1.34 4.49-1.85 9.17-4.13 12.72-1.35 2.1-5.6 3.45-8.36 3.2-2.21-.22-4.2-3.3-6.17-5.23-.27-.26-.07-1.5.3-1.82 2.61-2.13 2.16-4.38.78-7-.47-.88-.06-2.25.01-3.4.3-4.44 1.43-9.02.75-13.3-.78-4.85-3.38-10-.86-14.35 3.18-5.46.67-9.88-.01-14.96-1.07-7.93-.9-16.04-1.06-24.07-.03-1.18.62-3.15 1.44-3.45a196.5 196.5 0 0 1 14.52-4.66c3.26-.94 6.6-1.57 9.89-2.37.47-.11.9-.52 1.37-.54 8.44-.39 16.88-.96 25.32-1.01 4.22-.03 3.92 3.93 4.22 6.7.35 3.2.23 6.5-.02 9.72-.08 1.11-1.21 3.11-1.75 3.07-4.85-.35-9.67-1.04-14.49-1.76-.29-.04-.42-1.16-.18-2.24 4.44-.5 8.43-.44 12.41-.66.82-.05 1.58-1.16 2.36-1.78-.83-.54-1.65-1.55-2.48-1.56-14.8-.1-29.59-.07-44.8-.07 0 13.27 0 26.37-.3 39.5-.6.45-.92.86-1.23 1.27.51.23 1.02.47 1.61 1.16.1 8.93.1 17.4.12 25.86 0 2.78.01 5.57-.03 8.66.26.74.58 1.18.89 1.62.34-.42.68-.84 1.45-1.4.85-1.4 1.58-2.64 1.64-3.9.2-4.43.17-8.87.23-13.3m40.13-61.76.1-.4s-.21.24-.1.4z"/>
  <path fill="#5A5B5F" d="M509.13 1547c.19-11.37 5.8-17.16 16.64-16.9 4.16.11 8.69.62 12.37 2.38 9.83 4.67 9.87 12.47 8.26 19.08-2.08 8.49-9.6 13.74-17.66 14.52-9.49.92-14.74-4.21-18.71-11.47-1.08-1.96-.65-4.74-.9-7.6z"/>
  <path fill="#333334" d="M1189.88 1736.97c.07-21.82.2-43.63.14-65.44-.01-3.54-.86-7.08-1.37-10.96 8.41 0 16.18-.33 23.91.11 5.3.3 10.96.73 15.74 2.76 12.34 5.26 16.32 21.84 7.93 31.82-2.36 2.82-5.14 5.29-7.74 7.91-2.24 2.27-3.32 4.52-1.34 7.75 3.62 5.9 6.73 12.13 10.39 18.02 1.94 3.14 4.6 5.85 6.92 8.75l-1.4 1.84c-2.05-1.06-4.86-1.62-6.03-3.3-3.23-4.64-5.78-9.76-8.6-14.7l-8.5-15.02H1195c-.19 1.84-.6 4.25-.63 6.66-.1 7.17-.1 14.33-.06 21.5.01 2.28-.29 4.08-3.7 3.08-.43-.4-.74-.78-.74-.78m35.49-71.24-30.54-2.35v38.7c8.85 0 17.15.25 25.43-.08 6.53-.26 14.8-8.01 15.68-14.17 1.32-9.31-.58-17.23-10.57-22.1zm-765.33 38.2c2.6-.4 4.03.27 3.96 3.35-.15 7.16.85 14.49-.44 21.4-.6 3.17-5.16 6.14-8.56 8.07-2.85 1.6-6.68 1.4-10 2.29-9.23 2.5-17.84.11-25.65-4.3a21.78 21.78 0 0 1-11.12-16.71c-.9-8.3-1.58-16.75-1.07-25.06.41-6.8 1.46-14.12 4.48-20.07a21.34 21.34 0 0 1 17.13-11.78c5.22-.55 10.16-.66 15.48.43 11.31 2.3 16.47 9.86 20 19.77-2.66 1.37-4.85 2.82-6.1-1.4-3.69-12.36-13-17.83-25.92-15.48-12.63 2.3-19.5 10.02-20.14 22.9-.33 6.82-.44 13.64-.5 20.46-.2 21.13 14.98 32.33 35.58 27.74.98-.22 1.97-.39 2.93-.65 7.98-2.2 8.91-3.37 9-11.7.05-4.83-.01-9.66-.07-14.49 0-.46-.31-.91-.64-1.81l-13.24.76c-1.5.1-3.04.45-4.47.2-1.1-.2-2.05-1.18-3.06-1.8 1-.56 1.97-1.53 2.98-1.58 5.49-.24 10.99-.25 17.19-.32 1.22-.05 1.74-.13 2.25-.22z"/>
  <path fill="#2C2C2D" d="M1565.14 1672a619.88 619.88 0 0 0-6.82 14.73c-.18 1.56-.2 2.41-.2 3.27-.27 2-.53 4-.84 6.68 0 1.23.06 1.78.12 2.33-.07 1.07-.13 2.13-.2 3.85.1 1.2.18 1.75.27 2.3.05.7.1 1.4.43 2.48.26.37.2.75.2.75 1.27 5.1 2.54 10.22 4.18 15.9a166.9 166.9 0 0 0 4.9 5.6c7.02 9.24 29.7 8.29 38.55-.11.8-.76 1.08-2.38 1.07-3.6 0-5.13-.21-10.27-.48-16.19-1.23-4.96-4.07-2.48-6.29-2.4-3.6.13-7.2.21-10.8.4-2.27.11-4.1-.08-2.82-3.49 6.7-.38 12.83-.11 18.93-.5 3.96-.25 6.57 1.76 6.27 5.73-.33 4.23-.85 8.48-.67 12.7.25 6.1-1.3 10.92-7.28 13.52l-2.78.85c-10.75 2.94-20.8 5.05-30.84.1-9.07-4.22-14.99-11.17-15.57-21.18-.64-11.17-1.95-22.82.36-33.54 4.43-20.51 25.84-27.87 44.83-16.85 4.56 2.65 6.67 6.86 9.19 11.7.51 1.41.87 2.2 1.22 2.97-.05.41-.1.82-.42 1.63-.77.94-1.27 1.46-1.78 1.99a7.42 7.42 0 0 0-2.22-1.09c-.3.16-.34.04-.34.04 1.24-5.55-1.67-9.37-5.44-12.74-1.22-1.09-2.78-1.8-4.68-2.91-1.09-.42-1.67-.6-2.26-.8-7.2-3.02-14.32-2.74-21.99.76-2.33 1.91-4.07 3.52-5.8 5.12zm-86.5 29.25c-7.69-2.73-14.9-5.46-20.25-11.49-.4-.44-.99-.75-1.27-1.25-3.21-5.79-.34-18.16 4.98-22.04 10.7-7.8 26.07-8.38 37.09.16 7.88 6.12 6.1 5.29 8.33 14.99-.32.3-.63.84-1.04.94-.93.22-1.9.23-2.84.32-3.39-16.26-14.64-20.27-29.03-17.16-10.36 2.23-14.47 6.84-13.8 15.1.62 7.77 5.95 11.95 12.86 14.28a468.6 468.6 0 0 0 20.36 6.41c7.03 2.01 13.5 9.94 13.99 17.6.53 8.53-3.34 13.16-11.6 17.32-12.95 6.5-24.99 4-36.05-3.26-3.7-2.44-5.08-8.47-7.23-13-.12-.26 2.46-1.79 4.21-3.04 1.6 13.86 9.12 16.62 18.83 18.93 8.6 2.05 15.96-.76 22.8-5.89 5.93-4.44 6.72-12.7 1.52-18.39-4.74-5.18-10.98-7.1-17.34-8.98-1.4-.4-2.77-.91-4.52-1.55zm386.46 36.49a6.61 6.61 0 0 0-.8-2.03c-4.37-6.85-8.33-13.3-12.3-19.76-1-1.75-2-3.5-3.47-5.99a54.02 54.02 0 0 0-3.12-3.61c.01.02-.03-.12-.43-.26-3.25-.1-6.12-.07-8.98-.03-.76-.07-1.51-.14-3.08-.2-11.38 0-11.38 0-10.72 8.14-.08.74-.16 1.49-.7 2.6a7.5 7.5 0 0 1-4.28-.1c-.02-8.46.04-16.46.48-24.57.12-3.73-.12-7.36-.44-11.44-.15-5.47-.21-10.48-.28-15.49l.5-4.85h21.47c6.18.99 12.03.91 16.63 3.28 4.17 2.14 8.35 6.4 10.08 10.7 3.04 7.59 2.3 15.68-2.51 22.87-1.3 1.03-2.61 2.07-4.42 3.48a18.46 18.46 0 0 0-1.92 2.4s.1.02-.31 0c-5.84 1.72-6.13 4-1.62 9.41.15.52.31 1.04.85 2 3.3 4.97 6.22 9.52 9.14 14.07.6.7 1.21 1.41 1.92 2.72 1.1 3 2.12 5.4 3.13 7.78l-1.15.56-3.67-1.68m-27.7-73.73c-3.66.02-7.32.2-10.97.01-3.38-.18-4.69.84-4.57 4.49.3 8.64.13 17.29.15 25.94v7.73c7.18 0 13.49-.2 19.78.06 5.2.2 9.55-1.26 13.8-4.33 8.57-6.18 10.42-17.86 3.87-26.17-5.48-6.97-13.15-7.65-22.06-7.73zm-422.66 38.26c-6.1-2.7-11.97-4.9-17.57-7.7-6.92-3.45-8.65-10.08-8.05-16.94.57-6.57 4.7-11.26 10.81-14 12.46-5.6 24.07-4.45 34.43 4.7 4 3.54 7.74 10.18 4.7 16.45-1.54-2.34-3.44-4.08-3.92-6.15-1.74-7.44-6.3-13.22-13.49-13.55-7.28-.33-14.82-1.39-21.8 3.32-7.83 5.3-9.25 16.52-1.32 21.71a57.99 57.99 0 0 0 17.66 7.64 47.71 47.71 0 0 1 19.72 9.8c6.38 5.35 7.53 13.96 3.35 21.5-4.09 7.38-11.51 9.33-18.7 10.54-9.71 1.64-19.44.14-26.92-6.87-3.18-2.97-4.91-7.65-6.8-11.78-.87-1.9 1.35-3.4 4.55-3.44.08.14.24.3.23.43-.5 10.28 6 14.64 14.53 17.36 7.53 2.4 14.85 2.1 21.8-1.81 5.3-3 9.34-7.35 9.1-13.7-.27-7.06-6.4-13.4-13.17-15a161.1 161.1 0 0 1-9.14-2.5z"/>
  <path fill="#333334" d="M379 1696.87c.44.11.89.22 1.98.3.76-.4.86-.79.97-1.17v-35.79l2.4-.73c.83 1.24 2.38 2.48 2.39 3.72.16 23.8.18 47.61.02 71.41 0 1.35-1.8 2.69-2.77 4.03l-2.11-.81V1701h-47.5v19.84c0 4.66.14 9.33-.15 13.97-.07 1.19-1.52 2.3-2.34 3.43-.65-1.13-1.84-2.25-1.85-3.38-.16-12.82-.14-25.64-.15-38.46-.02-11.95 0-23.9 0-36.05 3.58-.53 4.66.29 4.6 3.54-.22 10.8-.09 21.6-.09 33.15h42.47c1.24-.06 1.68-.12 2.13-.18zm981.86 18.57c-9.78.02-19.12.32-28.43-.11-4.23-.2-6 1.63-7.2 5.05-1.58 4.48-3 9.03-4.93 13.37-.9 2.06-2.8 3.68-4.26 5.5l-1.61-.7c.12-1.25-.03-2.6.4-3.73a3155.25 3155.25 0 0 1 25.6-67.64c.81-2.1 1.45-4.48 2.89-6.07 1.38-1.55 3.57-1.79 4.67.95 2.97 7.38 6.01 14.73 8.94 22.13a4399.68 4399.68 0 0 1 15.55 39.72 98.66 98.66 0 0 1 3.6 11.61c.25 1.04-.7 2.38-1.09 3.58l-2.02.09c-1.9-5.3-3.57-10.7-5.8-15.85-1.3-2.99-.78-7.63-6.31-7.9m-13.36-3.24h15.58l-16.5-46.27-1.32.32-16.86 45.97c6.63 0 12.37 0 19.1-.02z"/>
  <path fill="#2C2C2D" d="m207 1665 3.23-5.92c2.1 2.87 4.47 5.05 5.53 7.75 5.3 13.5 10.3 27.1 15.33 40.7 3.81 10.33 7.5 20.7 11.25 31.04l-.89 1.1c-1.74-1.43-4.33-2.51-5.08-4.35-2.15-5.3-3.39-10.96-5.39-16.32-.48-1.3-2.51-2.84-3.87-2.87a981.8 981.8 0 0 0-33.35-.06c-.92 0-2.29 1.18-2.66 2.12-2.06 5.26-3.88 10.61-5.8 15.93-1.41 3.95-1.42 3.95-6.27 3.48 2.05-5.26 4.1-10.48 6.1-15.72 6.23-16.32 12.44-32.65 19.12-49.5a83.8 83.8 0 0 0 2.76-7.38m-7.68 29.9-5.99 17.03h35.31l-17.09-45.1-1.44-.19c-3.46 9.2-6.92 18.4-10.79 28.27z"/>
  <path fill="#333334" d="M1720.16 1721c-.83 1.9-1.67 3.8-2.82 6.33-1.34 3.53-2.14 6.54-3.52 9.26-.47.93-2.38 1.14-3.63 1.68-.09-1.2-.45-2.46-.19-3.58.39-1.62 1.23-3.13 1.88-4.69.73-2.06 1.46-4.12 2.58-6.73.55-1.66.54-2.85.93-3.88a4897.35 4897.35 0 0 1 20.9-53.29c.82-1.45 1.39-2.75 2.22-4.29 2.53-2.87 4.27-2.62 5.5.68l15.45 41.18c.33.4.65.8 1.26 1.68 2.42 6.76 4.57 13.04 6.72 19.33a161.7 161.7 0 0 0 3.06 8.29 48.43 48.43 0 0 1 1.36 5.8l-1.43.7c-1.05-1.19-2.37-2.23-3.08-3.6-1.87-3.56-3.48-7.27-5.2-10.93a36.53 36.53 0 0 0-1.57-4.34c.14-4.32-1.59-5.34-5.23-5.27-9.4.18-18.8.2-28.2-.18-4.54-.18-6.74 1.4-7 5.85m7.67-8.8h30.43l-16.72-46.81-1.58.24-16.15 46.08 4.02.5z"/>
  <path fill="#2C2C2D" d="M306.94 1715.82c3.38-.01 3.92 1.42 3.12 4.66-3.27 13.27-12.31 18.59-26.81 19.44-13.34.79-28.02-9.73-28.42-25.94-.18-7.23-1.29-14.53-.65-21.68.6-6.78 1.55-14.24 4.93-19.84 2.82-4.66 9.02-7.92 14.4-10.23 9.85-4.24 19.28-1.45 28 4.17 5.76 3.7 6.84 10.2 9.3 15.83.24.55-2.16 2.26-4.12 4.22-.82-3.68-1.26-5.97-1.84-8.22-1.95-7.64-8.11-10.95-14.68-13.13-7.46-2.48-15-1.5-20.92 3.92-3.36 3.08-6.71 7.1-8.01 11.31a65.38 65.38 0 0 0 .17 39.98c3.69 11.73 13.4 17.27 25.24 15.76 7.95-1.02 14.7-4.54 18.67-12.9.45-1.44.53-2.3.62-3.18.31-1.1.62-2.22 1-3.7.06-.37 0-.47 0-.47z"/>
  <path fill="#333334" d="M685.07 1696.22c.97 8.44.98 16.7 3.12 24.34 4.05 14.44 19.08 19.8 32.54 13.59 7.47-3.45 11.1-8.29 11.5-16.18.05-.94 1.07-1.83 1.65-2.74l1.74.15c0 2.3.53 4.77-.1 6.89-3.44 11.71-12.78 17.76-25.26 17.63-20.03-.19-27.44-14.23-28.97-29.2-.47-4.57-1.58-9.2-1.2-13.7 1.13-13.8 3.7-27.15 17.72-34.32 2.41-1.23 5.32-1.54 8.03-2.13 9.44-2.06 23 3.31 27.61 11.56 2 3.59 2.58 7.96 3.94 12.43-3.05.25-4.66.57-5.43-2.88-2.87-12.85-8.08-15.89-21.28-16.82-16.58-1.18-22.48 10.67-24.68 23.54-.41 2.44-.63 4.92-.93 7.84zm270.87-31.92c-14.22-.64-28.53.69-42.7-.8-.1-.63-.17-1.26-.26-1.89 1.03-.42 2.06-1.22 3.1-1.23 11.6-.08 23.2-.05 34.79-.05h17.34c-2.48 4.87-3.92 8.6-6.12 11.8-3.8 5.54-8.2 10.65-12.1 16.11a658 658 0 0 0-13.95 20.32c-5.44 8.22-10.7 16.55-16.66 25.83h48.69l.5 2c-1.34.46-2.66 1.3-4 1.3-16.78.1-33.55.06-51.93.06 2-4.5 3.24-8.58 5.47-12.01 4.02-6.17 8.73-11.88 12.98-17.9 8.67-12.26 17.23-24.6 26.32-37.42 1.27-2.2 2.05-3.9 3.06-6.12h-4.53zm148.41 3.76c1.03-1.91 1.82-3.57 2.94-4.94 1.09-1.33 2.53-2.38 3.8-3.55l1.7 1.23c-1.88 5.53-3.62 11.1-5.68 16.57-4.07 10.85-8.41 21.6-12.46 32.46-2.97 7.96-5.47 16.1-8.58 23.99-.8 2.03-3.1 3.46-4.72 5.16-1.41-1.97-3.3-3.76-4.15-5.95-3.55-9.19-6.7-18.53-10.16-27.75-3.44-9.18-7.22-18.23-10.57-27.44-2.07-5.7-3.61-11.6-5.42-17.5 2.97-1.1 4.38 1.18 5.37 3.75 4.25 11.1 8.49 22.2 12.55 33.36 3.46 9.51 6.59 19.15 10.07 28.66.64 1.75 2.27 3.14 3.99 5.43 5-15.04 9.43-28.78 14.17-42.42 2.1-6.02 4.88-11.8 7.22-17.73.33-.83-.09-1.96-.07-3.33zm49.75-7.73c5.8.1 11.13.1 16.45.37 1.23.06 2.42.97 3.64 1.49-1.26.66-2.5 1.87-3.76 1.89-11 .14-22 .2-33-.03-4-.09-5.65 1-5.47 5.26.29 6.98.01 13.99.04 20.99.04 6.93.08 6.92 6.83 6.88 8.83-.04 17.67-.14 26.5-.01 1.52.02 3.04 1.03 4.56 1.6l-.3 1.6h-37.3v34.34h42.83c-2.97 3.4-32.56 4.43-47.56 2.54v-76.92h26.53z"/>
  <path fill="#FFF" d="M1792.56 1660.2c1.9-.45 4.18-1.8 5.64-1.19 4.6 1.92 3.54 6.57 3.46 10.23-.11 5.13-1.35 10.23-1.56 15.37-.3 7.27-.34 14.58-.04 21.85.4 9.41 1.36 18.8 1.8 28.21.14 2.93-.55 5.91-1.06 8.83-.1.6-1.06 1.45-1.67 1.5-4.22.27-8.44.43-12.66.43-.45 0-1.28-1.2-1.3-1.85a149.7 149.7 0 0 1 0-13.73c.06-.99 1.78-1.88 3.22-2.38.5 2.6.25 4.8.62 6.9.25 1.45 1.37 2.75 2.1 4.11.68-1.38 1.96-2.75 1.97-4.13.1-21.58.04-43.16-.03-64.73-.01-3.14-.32-6.28-.49-9.41zm24.02 4.8c.47 5.01.53 10.02.56 15.94.03 4.3.1 7.7.19 11.1-.07 8-.13 16-.23 24.91-.04 7.53-.04 14.15-.04 20.71 4.48 1.02 4.73.88 4.95-2.71.11-1.98.17-3.97.25-5.95.92.7 2.54 1.3 2.63 2.1.5 4.02.68 8.09.72 12.15 0 .73-1.2 2.14-1.81 2.11-3.97-.13-8.13.05-11.84-1.1-4.06-1.25-3-5.47-2.91-8.67.15-5.61.84-11.22.84-16.83 0-4.09-.78-8.18-1.18-12.27a42.96 42.96 0 0 1-.26-4.34c.03-9.6.12-19.2.16-28.8 0-.8-.44-1.62-.38-2.41.46-6.1.8-6.34 8.35-5.94z"/>
  <path fill="#333334" d="M490.04 1731c-.62 3.32 1.6 3.39 3.88 3.4 10.07.07 20.15.15 30.68.66.4 1.11.35 1.8.3 2.49h-38.66v-77.22c14.68 0 29.23-.03 43.78.08.84 0 1.67 1.12 2.5 1.72-1.16.64-2.3 1.84-3.48 1.85-10.65.13-21.3.06-31.97.04-7.45-.01-7.4-.02-7.36 7.56.06 8.28.02 16.56.02 25.94h37.97v2.42h-37.8c0 10.24 0 19.19-.05 28.92.03 1.24.1 1.7.19 2.14zm59.09-63.01v-7.05c9.43 0 18.27-.28 27.09.08 11.08.45 18.66 5.9 21.65 14.86 3.03 9.09-.25 18.9-9.2 26.35l-1.78 1.25c-3.26.91-3.72 2.76-2.09 5.6 3.52 6.12 6.86 12.35 10.41 18.45 1.55 2.66 3.52 5.08 5.17 7.69.6.94.8 2.12 1.18 3.2-1.3-.2-3.08.09-3.8-.66a42.56 42.56 0 0 1-5.66-7.27 390.63 390.63 0 0 1-11.78-20.15c-1.62-3.01-3.85-4.25-6.94-4.26-6.14-.01-12.29.15-19.11.21-.69-.03-1.04.33-1.04.33l.16.47s-.17.04-.6-.06c-.22-2.74-.01-5.38.32-7.63 1.42 1.18 2.7 2.58 4.03 2.63 6.14.21 12.3-.16 18.45.07 6.83.27 11.85-3.07 15.9-7.87 8.38-9.95 1.89-27.33-10.98-29.2-6.2-.9-12.57-.88-18.87-1.01-8.2-.17-8.2-.05-9.01 7.93a41.73 41.73 0 0 1-3.5-3.96z"/>
  <path fill="#2C2C2D" d="m988.1 1695 .73 23.45c.39 12.94 15.43 20.13 26.62 16.96 5.54-1.57 10.46-3.05 13.98-7.94 3.86-5.38 4.47-11.4 4.44-17.71-.07-15-.04-29.99-.02-44.98 0-1.8.21-3.6.33-5.4l1.31-.35c.62 1.92 1.74 3.84 1.76 5.77.18 16.32.37 32.65.09 48.97-.12 6.67-.87 13.76-6.4 18.42a35.67 35.67 0 0 1-12.09 6.56c-8.23 2.56-16.28 1.51-24.05-2.71-6.17-3.35-9.53-8.64-9.68-15.02-.47-19.3-.2-38.61-.18-57.92 0-1.1.32-2.22.49-3.32l1.46-.37c.39 1.53 1.1 3.07 1.12 4.6.11 10.17.08 20.33.09 30.99z"/>
  <path fill="#333334" d="m133.85 1713 .1-16c-.03-7.95-.07-14.98-.12-22l.11-12.92a24.19 24.19 0 0 0-.1-2.08c2.27.05 4.54.14 6.8.15 12.27.04 24.52.01 36.78.18 1.17.02 2.32 1.24 3.49 1.9-1.23.72-2.45 2.05-3.68 2.07-12.81.15-25.62.09-38.92.09v33.38h37.29v2c-12.24 2.56-24.8-.18-37.76 1.75v33.03c.01 2.59-.04 5.03-3.85 3.24l.01-20.72c-.04-1.93-.1-3-.15-4.07zm1530.32 23.68-.01-8.36c-.01-8.47-.02-16.93 0-26.18a13.5 13.5 0 0 0-.2-2.14v-39.47c15.21 0 30-.02 44.8.07.83 0 1.65 1.02 2.48 1.56-.78.62-1.54 1.73-2.36 1.78-3.98.22-7.97.16-12.42.28-1.85.03-3.24-.02-5.5-.07l-10.96.14c-1.72-.06-3.44-.12-6-.17-4.6-.5-6.42.79-6.03 4.91.34 3.64.19 7.31.26 10.97-.06 1.72-.12 3.44-.18 6.03v10.91H1705c.3.5.59 1 .75 2.1a58.54 58.54 0 0 1-12.23 1.66c-8.36.17-16.73.05-25.19.05V1713c-.05 2.05-.1 4.1-.07 6.57.02 4.86.05 9.3-.15 13.73-.06 1.26-.8 2.5-1.94 3.76a8.68 8.68 0 0 1-2-.38z"/>
  <path fill="#FFF" d="M1759.7 1703.32a1805.65 1805.65 0 0 1-15.68-40.83c-1.24-3.3-2.98-3.55-5.89-.66-2.52 1.17-5.4 1.73-2.09 4.43-6.89 17.7-13.8 35.4-20.65 53.13-.4 1.03-.38 2.22-.91 3.5-1.06-1.07-2.31-2.26-2.38-3.52-.25-4.48-.1-8.98-.1-13.92 2.32-.45 4.64-.45 6.86-.45 1.3-3.28 2.76-6.22 3.55-9.33.33-1.28-.62-3-1.3-4.38-1.72-3.5-.58-8.17 3.05-9 5.14-1.18 4.27-4.82 4.93-8.38.97-5.19 2.62-10.27 4.29-15.29.27-.81 2.12-1.33 3.32-1.56 2.25-.43 4.57-.58 6.86-.76.8-.06 1.67-.01 2.4.26 2.16.8 7.28 11.27 7.2 13.74-.14 4.42-1.91 9.63 5.05 11.08 1.12.23 2.4 2.47 2.57 3.9.55 4.67.75 9.4.8 14.1 0 1.2-1.07 2.4-1.88 3.94zm103.85-6.32c4.41-7.19 5.15-15.28 2.1-22.86-1.72-4.31-5.9-8.57-10.07-10.71-4.6-2.37-10.45-2.3-16.17-3.38.88-2.97 3.1-5.6 1.7-9.15-.2-.46.31-1.73.58-1.76 4.38-.4 8.8-.97 13.16-.72.82.04 1.47 3.42 2.17 5.27.17.45.2.95 1.07.8 2.26 2.4 4.53 4.8 6.77 7.21.33.36.42 1.09.79 1.24 10.9 4.34 7.67 13.46 7.4 21.62-.07 1.8.12 3.65.48 5.42 1.25 6.13-.79 8.2-7.08 7.1-.81-.14-1.66-.06-2.9-.08z"/>
  <path fill="#333334" d="M853.82 1686.98c-.01-6.32-.1-12.63 0-18.95.06-3.04-1.17-4.05-4.17-3.96-6.14.2-12.3.15-18.45.04a13.24 13.24 0 0 1-5.9-1.59c3.54-3.68 7.93-1.5 12.65-2.2 1.9-.06 2.97-.15 4.04-.24l6 .25c4.22-.07 7.62-.16 11.01-.25.86 0 1.7 0 2.94-.31.39-.32.49-.26.49-.26 1.27.26 2.53.53 4.58.83 6.21 0 11.63-.03 17.05-.07l1.8 2.57c-.96.4-1.93 1.16-2.9 1.17-8.1.1-16.21.06-24.98.06v6.22l-.13 61.85c0 1.16.22 2.4-.13 3.47-.34 1.04-1.27 1.9-1.94 2.83-.6-1-1.64-2-1.69-3.03-.2-4.48-.13-8.97-.13-14.39-.02-11.96-.08-23-.14-34.04zm-233.62 44c0-9.34.02-18.68.53-28.32.9 6.17 1.29 12.64 1.69 19.1.59-6.94.66-13.86.48-20.78-.02-.7-1.56-1.36-2.4-2.04-.05-11-.1-21.99.33-33.46 1.76-.47 3.01-.46 4.27-.45-.02 7.68-.03 15.35-.5 23.4-.83-2.23-1.2-4.83-1.59-7.86V1674l-.99-.01v7.47c-.01 3.4-.3 6.38.13 9.25.17 1.2 1.84 2.2 2.83 3.3-.07 2.24.85 3.2 3.25 3.11 9.9-.37 19.81-.7 29.72-.77 1.7-.02 3.4 1.26 5.1 1.94l-.16 2.1c-3.88.22-7.75.59-11.63.63-8.25.1-16.5.03-25.52.03v33.01l4.75 1.38c-1.88 4.02-5.2 2.15-7.7 2.38-2.94.28-3.12-1.77-2.42-4.4 1.01-.78 1.6-1.13 2.2-1.5-.8-.3-1.59-.63-2.38-.94z"/>
  <path fill="#FFF" d="M1603.83 1736.36c5.8-3.01 7.36-7.83 7.11-13.93-.18-4.22.34-8.47.67-12.7.3-3.97-2.31-5.98-6.27-5.73-6.1.39-12.24.12-18.83.12a30.07 30.07 0 0 1-1.74-6.05c7.32-3.08 14.12-2.01 20.94-.69 1.29.25 2.63.62 3.9.48 6.65-.71 7.26-.11 7.42 6.62.2 8 .6 16.01.96 24.02.3 6.84-6.94 11.14-14.16 7.86z"/>
  <path fill="#333334" d="M1262 1662c1.23-.5 2.46-1 3.97-.92.36 1.06.43 1.54.51 2.01-.04 2.98-.07 5.95-.15 9.83.08 8.67.2 16.43.32 24.19-.07 2.3-.13 4.62-.27 7.8 0 3.3.08 5.74.15 8.19 0 6.08 0 12.15.07 18.98a8.58 8.58 0 0 0 2.5 2.47c12.33 1.02 24.83-1.25 37.1.84l-.02 1.83h-44.13v-72.12c-.02-1.59-.04-2.34-.06-3.1z"/>
  <path fill="#58595D" d="M761.85 1715.96c.09 6.14.32 12.28.13 18.4-.04 1.26-1.65 2.46-2.54 3.69-.87-1.26-2.47-2.51-2.49-3.79-.22-14.61-.22-29.23-.23-43.85 0-8.3.03-16.61.23-24.91.06-2.14.82-4.27 1.26-6.4l1.67-.2c.7 1.79 1.97 3.56 2.02 5.36.26 9.96.22 19.93-.19 30.56-.71 7.29-.97 13.9-1.14 20.53 0 .2.84.4 1.28.61z"/>
  <path fill="#333334" d="M1792.3 1660.2c.43 3.14.74 6.28.75 9.42.07 21.57.12 43.15.03 64.73 0 1.38-1.29 2.75-1.97 4.13-.73-1.36-1.85-2.66-2.1-4.11-.37-2.1-.12-4.3-.23-6.91-.04-9.82.02-19.18.08-29.46l-.23-24c.08-1.4.16-2.79.25-5.02l-.06-6.98c.15-.4.3-.81.74-1.65.66-.68 1.02-.93 1.38-1.18.36.34.72.69 1.35 1.03z"/>
  <path fill="#2C2C2D" d="m1527.73 1719 .16-53.36c0-1.32-.15-2.7.16-3.96.19-.78 1.12-1.37 1.71-2.04.64.61 1.55 1.12 1.85 1.87.36.87.23 1.96.23 2.95.05 22.94.13 45.87.04 68.81 0 1.76-1.26 3.52-1.93 5.28l-2.22-.48V1719z"/>
  <path fill="#FFF" d="M1668.69 1713c-.36-3.77-.36-7.55-.36-12.25 8.46 0 16.83.12 25.2-.05a87.6 87.6 0 0 0 12.3-1.37c.72-.33 1.22-.3 1.7-.34 2.02-.19 4.03-.4 6.04-.6a148.7 148.7 0 0 0-1.56 6.23c-2.48.18-5-.4-7.42-.1-2.4.28-5.08.94-6.98 2.33-4.14 3.04-13 3.36-16.5-.36-3.43-3.63-5.42-2.5-7.58 1.18-1.16 1.97-2.97 3.56-4.84 5.32z"/>
  <path fill="#333334" d="M761.92 1715.5c-.51.26-1.35.04-1.35-.15.17-6.62.43-13.24 1-20.08 2.03.43 3.73 1.6 5.45 1.62 11.8.2 23.59.2 35.38.19 6.5 0 6.5-.06 6.57-6.65.02-1.83.05-3.65.5-5.85 1.1 2.26 2.58 4.98 2.29 7.5-.4 3.3.48 7.9-4.74 8.86-13.24-.04-26.48-.14-39.71-.03-1.59.01-3.17 1.17-5.22 2.06-.31.44-.16.62 0 .8-.04 3.76-.07 7.52-.17 11.73z"/>
  <path fill="#44454C" d="M552.98 1699c-.2 2.65-.41 5.3-.27 7.99.39 9.73.43 19.42.14 29.73-1.62.53-2.9.44-4.19.35.07-22.72.15-45.45.34-68.63 1.18.85 2.23 2.15 3.73 3.97.37 7.87.3 15.24.02 22.74-.07.71.07 1.27.33 2.17.04.78-.03 1.23-.1 1.68z"/>
  <path fill="#58595D" d="M807.14 1701.34c5.1-1.35 4.23-5.97 4.62-9.27.3-2.5-1.18-5.23-2.23-7.94-.44-.87-.51-1.65-.1-2.8 1.72-.38 2.94-.4 4.16-.4.04 17.1.14 34.2-.01 51.31-.01 1.1-1.88 2.2-2.89 3.29l-1.34-.61c-.45-9.13-.87-18.26-1.36-27.39-.11-1.93-.48-3.85-.85-6.19z"/>
  <path fill="#FFF" d="M1720.54 1721.06c-.13-4.5 2.07-6.09 6.61-5.9 9.4.37 18.8.35 28.2.17 3.64-.07 5.37.95 4.91 5.14-2.83-.62-5.37-.82-8.5.8-2.1 1.1-5.38-.15-8.14-.22-3.06-.08-6.12-.05-9.18-.03-4.5.02-9.01.06-13.9.04zm-15.54-24.51c-12.04.4-24.09.4-36.95.4 0-3.57 0-6.81.09-10.5 1.7.6 4.07 1.27 4.77 2.75 1.68 3.57 4.03 4.12 7.58 3.6 3-.45 6.12-.1 9.18-.05 2.94.04 5.8 1.3 8.22-2.3 1.73-2.57 4.78-1.76 6.14 1.42.57 1.32.66 2.85.97 4.68zm6.53 33.4c-.3 1.6-1.14 3.12-1.53 4.74-.26 1.12.1 2.38.19 3.58 1.25-.54 3.16-.75 3.63-1.68 1.38-2.72 2.18-5.73 3.4-8.94 6.2 3.01 2.35 9.25 4.1 13.94.86 2.28-2.65 4.55-6.05 4.05a51.04 51.04 0 0 0-5.9-.62c-5.32-.16-6.58-2.08-4.7-7.32.49-1.38.97-2.8 1.21-4.24.27-1.62.27-3.3.38-4.95 1.64.47 3.28.93 5.27 1.44zm50.3-4.85c2.04 3.5 3.65 7.2 5.52 10.78.71 1.36 2.03 2.4 3.08 3.59l1.43-.7c-.32-1.73-.65-3.47-1.1-5.5.84-2.96 2.02-5.27 5.56-3.81l1.17 15.15c-4.33.47-7.87 1.2-11.4 1.14-3-.06-4.32-1.87-4.14-5.31.2-3.6-.83-7.24-1.1-10.88-.1-1.4.42-2.87.98-4.46z"/>
  <path fill="#44454C" d="M625.47 1664.85c-1.63.17-2.88.16-4.51.18-.57-.42-.77-.86-.62-1.64a6.95 6.95 0 0 1 1.95-.67l-.04-.61-2.16-.1c1.96-.72 3.91-2.02 5.89-2.06a814 814 0 0 1 31.22.04c3.77.08 7.52.9 11.27 1.4l-.05 1.93c-1.94.28-3.87.76-5.82.8-12.25.23-24.5.37-37.13.73z"/>
  <path fill="#FFF" d="M1570.03 1737.35c10.04 4.5 20.1 2.39 30.57-.31.4 2.35.4 4.66.4 7.47h-30.98v-7.16zm78.85-32.61c1.18 6.85.59 7.94-4.71 8.67-.64.1-1.61.38-1.87.08-3.49-3.96-6.39-3.14-11.04-.85-5.46 2.68-6.98.59-5.9-6.48 5.64-.33 10.75-.26 15.86-.43 2.56-.1 5.1-.64 7.66-.99zm-23.77-2.48c-.84-4.58 1.13-6.56 5.7-6.27 5.03.32 10.07.6 15.12.82 3.4.16 3.25 2 1.65 4.76-7.83.5-15.15.6-22.47.7zm226.36 13.7a345.4 345.4 0 0 1 12.54 19.67c-1.98.32-4.09.32-6.52.32-.13-4.38-1.1-7.82-6.33-7.18-.48.06-1.19-.55-1.56-1.03-1.43-1.82-.5-9.65 1.87-11.78z"/>
  <path fill="#DCD6CA" d="M1518.35 980.67c-.55.15-.7-.08-.77-.6.02-18.25.1-36.28.35-54.68.44.22.94.8.94 1.39-.05 17.86-.15 35.72-.52 53.89z"/>
  <path fill="#45464C" d="m652 1737.9-22.13-.19.09-2.36h37.76c-1.35 2.53-1.35 2.53-15.72 2.56zm1170.17-9.35c0 2.43-.05 4.42-.16 6.4-.22 3.59-.47 3.73-4.95 2.71 0-6.56 0-13.18.12-20.25 1.37-.45 2.62-.45 4.25-.44.47 3.7.56 7.41.74 11.58z"/>
  <path fill="#333334" d="M813.67 1680.47c-1.3.47-2.52.48-4.11.49-.35-5.8-.45-11.6-.22-17.4.05-1.3 1.24-2.57 1.91-3.86l2.5.64c0 6.56 0 13.11-.08 20.13z"/>
  <path fill="#45464C" d="M1625.12 1702.61c7.31-.44 14.63-.53 22.42-.68a4.9 4.9 0 0 1 1.33 2.5c-2.54.66-5.09 1.2-7.65 1.3-5.1.17-10.22.1-15.73.08-.38-.97-.37-1.91-.37-3.2z"/>
  <path fill="#FFF" d="M1767.7 1724.29a270.9 270.9 0 0 1-6.73-18.87c1.13-.4 2.3-.3 3.44-.44 4.51-.55 5.92 1 4.65 5.6-.69 2.51.04 5.39-.11 8.09-.1 1.76-.64 3.49-1.25 5.62z"/>
  <path fill="#7D7D80" d="M1609.3 1442.8c1.82-4.74 6.06-1.82 9.17-2.46 6.3-1.3 12.93-1.01 19.84-1.4.7 1.1.97 2.2 1.44 4.07-10.33 0-20.22 0-30.45-.22z"/>
  <path fill="#ECECED" d="M853.42 1687c.46 11.02.52 22.06.48 33.56-.7-1.55-1.77-3.55-1.84-5.57-.16-5.33.26-10.68.14-16.02-.05-2.71-1.03-5.41-1.06-8.12-.02-1.27 1.22-2.55 2.28-3.84z"/>
  <path fill="#FFF" d="M1668.63 1680c-.47-3.66-.32-7.33-.66-10.97-.4-4.12 1.43-5.42 5.61-4.84.07 4.7-.11 9.35-.81 13.93-.12.8-2.43 1.26-4.14 1.88zm119.61-5.98c.47 7.67.54 15.37.52 23.52-1.29-.64-3.51-1.76-3.5-2.85.04-6.56.58-13.11 1.06-19.66.03-.36 1-.66 1.92-1z"/>
  <path fill="#333334" d="m892 1701.92 12.73.73.05 2.01c-1.47.3-2.94.83-4.41.84-6.16.07-12.33.01-18.49-.06-1.7-.02-4.1.64-2.6-2.96 4.69-.4 8.7-.48 12.72-.56z"/>
  <path fill="#FFF" d="M1865.07 1738.19c1.25.11 2.47.67 3.7 1.23l1.15-.56a107.93 107.93 0 0 1-2.95-7.51c1.85-.5 3.63-.65 5.97-.85-.37 4.47-.56 8.86-1.26 13.17-.14.84-2.35 1.92-3.54 1.85-1.08-.08-2.52-1.39-2.97-2.5-.52-1.26-.13-2.9-.1-4.83zm-42.47-24.2c-1.06-8.13-1.06-8.13 9.96-8.01 1.17 4.92.12 8.06-5.8 7.14-1.17-.19-2.5.55-4.15.87zm42.3 13.95a256.7 256.7 0 0 1-8.91-13.56 3.4 3.4 0 0 1 1.85-.37c7.98-.06 7.9-.07 6.83 7.75-.26 1.87.16 3.84.23 6.18z"/>
  <path fill="#DCD6CA" d="M1590.67 1471.62c-2.95.5-6.2.89-9.45.93-7.99.12-7.99.06-9.32 8.16-.4-2.29-.99-5-.54-7.54.16-.93 2.76-1.97 4.28-2.02 4.9-.17 9.82.1 15.03.47z"/>
  <path fill="#FFF" d="M1845.4 1706.32c.89.97 1.77 1.93 2.81 3.33-.43 1.33-1.44 3.05-1.54 3-3.6-1.85-7.12-3.86-10.66-6.22a31.2 31.2 0 0 1 8.9 0c.4.69.5.9.57 1.12l-.08-1.23zm-165.4-41.64c3.36-.43 6.73-.48 10.55-.45.36 4.38-2.5 4.81-5.9 4.81-2.82 0-4.87-.56-4.65-4.36z"/>
  <path fill="#FAFAFA" d="M891.93 1701.58c-3.95.42-7.96.5-12.44.53-2.8-2.54-.56-3.3 1.17-4.01 4.5-1.86 7.93.41 11.27 3.48z"/>
  <path fill="#DCD6CA" d="M1266.96 1696.9c-.43-7.55-.55-15.31-.56-23.54.53 0 1.31.46 1.3.92a434.6 434.6 0 0 1-.74 22.63z"/>
  <path fill="#ECECED" d="M883.98 1659.98c-5.34.33-10.76.36-16.57.26.03-.78.42-1.95.89-1.98 4.71-.3 9.44-.47 14.16-.49.47 0 .96 1.25 1.52 2.21z"/>
  <path fill="#FAFAFA" d="M133.45 1675.1c.43 6.92.47 13.95.43 21.44-.51.26-1.34.04-1.33-.16.12-7.06.32-14.11.9-21.28z"/>
  <path fill="#FFF" d="M1855.03 1711.91c-4.66-5.03-4.37-7.31 1.45-9.08-.17 2.89-.73 5.8-1.45 9.08z"/>
  <path fill="#45464C" d="M620.38 1699.32c.96.3 2.5.96 2.52 1.66.18 6.92.1 13.84-.48 20.78-.4-6.46-.8-12.93-1.54-19.54a5.93 5.93 0 0 1-.5-2.9z"/>
  <path fill="#DCD6CA" d="M1640 1472.35c-4.7.23-9.51.09-14.64-.31 4.63-.2 9.57-.12 14.63.31z"/>
  <path fill="#ECECED" d="M858.93 1659.67c-3.32.5-6.72.59-10.52.56 2.19-3.14 6.47-3.47 10.52-.56z"/>
  <path fill="#FAFAFA" d="M1567.44 1729.54c-1.77-1.32-3.28-3-4.92-5 1.57-.63 3.28-.94 5.98-1.42a69.51 69.51 0 0 1-1.06 6.42z"/>
  <path fill="#FFF" d="M1788.46 1662.05c.38 2 .4 4.05.32 6.52-1.31-.5-3.64-1.65-3.52-2.35.27-1.5 1.82-2.76 3.2-4.17z"/>
  <path fill="#44454C" d="M625.11 1693.6c-1.12-.69-2.79-1.68-2.96-2.9-.43-2.86-.14-5.84.11-9.24.26-.46.75-.46.75-.46.38 2.6.76 5.2 1.52 7.9.49 1.49.6 2.9.58 4.7z"/>
  <path fill="#FAFAFA" d="M1214.95 1496.07a20.34 20.34 0 0 1-3.18-4.15c1.34-.94 2.78-1.6 4.23-2.24l.87 1.04c-.59 1.66-1.18 3.32-1.92 5.35zM1565.54 1672a34.53 34.53 0 0 1 5.14-4.85c.82.94 1.32 1.92 2.26 3.76-2.52.4-4.75.75-7.4 1.1z"/>
  <path fill="#E7E4D8" d="M582.7 1472.3c.4 2.81.53 5.92.47 9.35a57.7 57.7 0 0 1-.48-9.36z"/>
  <path fill="#ECECED" d="M1146.83 1386.94c-2.9.4-6.04.48-9.52.36 2.86-.36 6.07-.53 9.52-.36z"/>
  <path fill="#FAFAFA" d="M1600.03 1708c2.22-.5 5.06-2.97 6.11 1.6-1.8-1.21-5.28 3.77-6.11-1.6z"/>
  <path fill="#ECECED" d="M206.62 1665.01a32.56 32.56 0 0 1-2.18 7.06c-1.35-2.68-3.47-5.9 2.18-7.06z"/>
  <path fill="#DCD6CA" d="M1266.85 1712.94c-.4-2.29-.47-4.73-.4-7.61.34 2.2.53 4.83.4 7.61zM956 1664.62c1.28-.32 2.62-.32 4.47-.32a98.07 98.07 0 0 1-2.83 5.87c-.7-1.57-1.14-3.4-1.64-5.55z"/>
  <path fill="#FAFAFA" d="M1610.46 1680a5.78 5.78 0 0 1-1.4-2.67c1.87.01 3.7.35 5.54.7v1.47c-1.25.17-2.5.33-4.14.5z"/>
  <path fill="#333334" d="M527.92 1734.78c.32-.04.68-.2.95-.11 1.34.5 2.64 1.06 3.96 1.6-1.31.48-2.63.95-4.34 1a7.53 7.53 0 0 1-.57-2.5z"/>
  <path fill="#DCD6CA" d="M616.32 1484.7a29.58 29.58 0 0 1-.9-6.42c.47 1.79.81 3.98.9 6.43z"/>
  <path fill="#FAFAFA" d="M1607.9 1684c.48-.9.98-1.43 1.77-2.04.18 1.45.08 2.98-.02 4.5-.57-.7-1.14-1.4-1.75-2.47z"/>
  <path fill="#E7E4D8" d="M584.8 1386.76c-.35 1.41-.9 2.57-1.67 3.97-1.58-2.97-1.45-3.33 1.67-3.97z"/>
  <path fill="#DCD6CA" d="M548.48 1737.32c1.47-.16 2.75-.07 4.34-.13-.42 2.23-1.77 2.38-4.34.13z"/>
  <path fill="#C3C4C5" d="M614.66 1438.15c-.39-1.13-.48-2.28-.58-3.43l1-.3c.57 1 1.14 2 1.69 3.36-.62.35-1.21.35-2.1.37z"/>
  <path fill="#58595D" d="M527.57 1734.64c.4.82.47 1.5.53 2.53-.8.45-1.61.56-2.8.52-.35-.83-.3-1.52-.24-2.55a4.13 4.13 0 0 1 2.51-.5z"/>
  <path fill="#ECECED" d="M305.57 1720c.28.86.2 1.73-.13 2.82-.92-.3-1.6-.81-2.27-1.33.68-.49 1.36-.98 2.4-1.49z"/>
  <path fill="#FFF" d="M1790.92 1658.84c-.34.58-.7.83-1.27 1.2a9.59 9.59 0 0 1-1.77-1.84c1 .1 2.01.2 3.04.64z"/>
  <path fill="#DCD6CA" d="M1598.76 1471.63c-.95.39-2.11.53-3.5.46a8.23 8.23 0 0 1 3.5-.46z"/>
  <path fill="#FFF" d="M1862.2 1702.72c.65-.65 1.34-.97 2.04-1.3l.23 1.25c-.74.13-1.48.25-2.27.05z"/>
  <path fill="#ECECED" d="M841.93 1659.73a7.91 7.91 0 0 1-3.53.5c.41-2.98 1.75-2.95 3.53-.5z"/>
  <path fill="#FAFAFA" d="M133.52 1713.07c.38 1 .44 2.07.4 3.54-.3-.9-.51-2.19-.4-3.54z"/>
  <path fill="#DCD6CA" d="M496.3 1462.77a9.32 9.32 0 0 1-.84-3.55c.44.88.75 2.1.83 3.55z"/>
  <path fill="#C3C4C5" d="M1437.78 1386.88c-.86.5-1.96.74-3.39 1.09.83-.38 1.99-.86 3.39-1.09zm9.04.01c-.67.35-1.54.48-2.62.42.67-.34 1.54-.5 2.62-.42z"/>
  <path fill="#E7E4D8" d="M1152.37 1462.35a6.76 6.76 0 0 1-.9-3.12c.47.72.8 1.76.9 3.12z"/>
  <path fill="#ECECED" d="M1261.67 1662.05c.34.7.36 1.46.29 2.6a5.01 5.01 0 0 1-.3-2.6z"/>
  <path fill="#DCD6CA" d="M1269.07 1734.23a5.02 5.02 0 0 1-2.32-1.77c.8.25 1.55.85 2.32 1.77z"/>
  <path fill="#FAFAFA" d="M1232.95 1386.67c-.7.4-1.46.46-2.58.43.6-.32 1.56-.55 2.58-.43z"/>
  <path fill="#45464C" d="M620.07 1731.3c.91 0 1.7.31 2.5.63-.6.36-1.19.71-2.1 1.08-.4-.45-.46-.91-.4-1.7z"/>
  <path fill="#FAFAFA" d="M1558.46 1689.93a5.25 5.25 0 0 1-.16-2.8c.26.72.38 1.73.16 2.8z"/>
  <path fill="#ECECED" d="M586.93 1703.82c.4-.65.83-.96 1.51-1.36a12 12 0 0 1-.72 2.75c-.26-.35-.5-.7-.8-1.4zM1185.5 1423a5.2 5.2 0 0 1-1.29 2.39c.14-.71.53-1.55 1.3-2.4z"/>
  <path fill="#DCD6CA" d="M495.52 1491.9a6.1 6.1 0 0 1 .36-2.63c.1.67 0 1.6-.36 2.64z"/>
  <path fill="#FAFAFA" d="M1592.94 1666.48c.58-.17 1.16.02 1.9.4a4.69 4.69 0 0 1-.75 1.59c-.38-.55-.76-1.09-1.15-1.99z"/>
  <path fill="#ECECED" d="M306.94 1715.94a26.9 26.9 0 0 1-1.6-1.3l.96-.93c.24.5.49 1.01.68 1.81-.04.3.02.4-.04.42zm183.39 15.02c-.37-.4-.45-.86-.4-1.64.62 0 1.13.32 1.63.64-.31.32-.63.64-1.23 1z"/>
  <path fill="#FAFAFA" d="M1557.75 1705.05c-.37-.44-.46-.98-.46-1.8.31.4.53 1.05.46 1.8zm-1424.18-45.01c.32.4.36.86.31 1.64-.56 0-1.03-.33-1.5-.66.3-.31.6-.63 1.19-.98z"/>
  <path fill="#DCD6CA" d="M1518.5 918a3.7 3.7 0 0 1 1.23-1.84c-.11.57-.53 1.18-1.23 1.84zm-251.76 745.03c-.34-.41-.41-.9-.48-1.73.25.31.5 1 .48 1.73zm304.76-167.81c.52.1.85.35 1.29.88a2.07 2.07 0 0 1-1.3-.88zm.04-7.03c.38.43.54.99.47 1.65a2.1 2.1 0 0 1-.47-1.65z"/>
  <path fill="#E7E4D8" d="M865.82 1478.01c-.32-.4-.4-.88-.44-1.72.25.3.47.97.44 1.72z"/>
  <path fill="#FAFAFA" d="M378.96 1696.59c-.4.34-.85.4-1.63.38-.01-.58.3-1.07.62-1.57.32.3.64.6 1.01 1.19z"/>
  <path fill="#ECECED" d="M1183.28 1425.81c.12.57-.05.88-.4 1.28-.54-.3-.92-.7-1.3-1.08.47-.15.94-.3 1.7-.2z"/>
  <path fill="#FAFAFA" d="M1557.69 1698.94c-.35-.48-.4-1.03-.34-1.84.29.42.46 1.1.34 1.84z"/>
  <path fill="#DCD6CA" d="M364.02 1387.17c-.02.53-.34.98-.86 1.62.06-.44.3-1.07.86-1.62z"/>
  <path fill="#FFF" d="M1857.17 1702.86c.1-.66.58-1.33 1.38-2.09a4.04 4.04 0 0 1-1.38 2.1z"/>
  <path fill="#ECECED" d="M459.98 1703.6c-.46.42-.98.5-1.74.48.4-.34 1.04-.57 1.74-.48z"/>
  <path fill="#FAFAFA" d="M366.96 1386.74c-.4.39-.85.47-1.63.45-.1-.64.12-1.18.34-1.72.42.32.84.64 1.3 1.27z"/>
  <path fill="#333334" d="M620.04 1662.25c.77-.2 1.49-.17 2.21-.14l.04.6c-.53.12-1.06.23-1.9.31-.31-.03-.4-.52-.35-.77z"/>
  <path fill="#C3C4C5" d="M733.06 1560.8c.3.2.37.45.33 1.07-.26-.09-.41-.55-.33-1.07z"/>
  <path fill="#FAFAFA" d="M1558.44 1708.51c-.34-.12-.28-.5-.34-.58.38-.14.8-.21 1.23-.28-.18.33-.37.66-.9.86z"/>
  <path fill="#ECECED" d="M1150.75 1387.32c-.07.3-.43.26-.56.13 0-.56.11-.99.23-1.42.14.33.28.66.33 1.3zm-288.22 272c-.1.19-.2.13-.27.16.08-.1.23-.22.27-.16z"/>
  <path fill="#C3C4C5" d="M1189.64 1737.06c.24-.1.55.3.56.54-.26.02-.54-.21-.56-.54z"/>
  <path fill="#ECECED" d="M913.55 1739.46c.03.06-.03-.05 0 0z"/>
  <path fill="#DCD6CA" d="M521.48 1658.51c-.01-.03.01.03 0 0z"/>
  <path fill="#ECECED" d="M483.47 1660.45c.06-.03-.05.04 0 0zm405 2c.05-.03-.06.03 0 0z"/>
  <path fill="#FAFAFA" d="M1605.4 1682.7c-.12.23-.3.45-.48.66 0-.19 0-.38.2-.68.2-.11.22 0 .28.02z"/>
  <path fill="#ECECED" d="M599.53 1692.55c-.05.04.06-.03 0 0z"/>
  <path fill="#FAFAFA" d="M381.73 1696.12c.11.26 0 .64-.42.98-.23-.37-.06-.65.42-.98z"/>
  <path fill="#DCD6CA" d="M553.56 1707.07c-.17.02-.33-.45-.33-.45s.35-.36.57-.25c.26.37.16.56-.24.7z"/>
  <path fill="#E7E4D8" d="M762.13 1703.67c-.2-.08-.35-.26-.29-.37.23.06.33.26.3.37z"/>
  <path fill="#555860" d="m1010.6 824.43-15.23 8.53c-10.68 6-21.32 12.06-32.04 17.99-12.66 7-25.38 13.9-38.1 20.82-12.99 7.07-26.01 14.08-39 21.18-11.01 6.02-21.93 12.23-33 18.15-5.95 3.18-9.69 6.6-9.43 14.59.7 21.44.18 42.92 0 65.15 0 2.55.12 4.34.25 6.14.07 38.63.15 77.26.2 115.9.01 16.32-.55 32.66.2 48.94.33 7.23-3.48 9.94-8.53 12.57-4.29 2.23-8.73 4.17-12.97 6.48-16.43 8.94-32.87 17.86-49.18 27.02-9.38 5.27-18.39 11.19-27.79 16.41-9.65 5.36-19.64 10.11-29.36 15.35-12.23 6.6-24.33 13.45-36.52 20.11-1.02.56-2.37.5-3.72-.02-.24-2.09-.4-3.42-.4-4.74-.03-60.7-.06-121.4-.06-182.09 0-1.3.27-2.62.76-3.82a44.2 44.2 0 0 1 1.82 5.79l164.28-90.55c-1.28-1.65-1.7-2.66-2.45-3.1A6599.6 6599.6 0 0 0 794.44 955c-10.45-5.9-21.02-11.6-31.5-17.46-13.26-7.41-26.46-14.96-39.75-22.33-11.92-6.62-23.98-13-35.86-19.7-3.01-1.69-5.56-4.21-8.14-6.65a277.5 277.5 0 0 1 13.9-8.36c14.98-8.24 30.04-16.33 45-24.6 20.07-11.1 40.09-22.28 60.09-33.48 14.74-8.26 29.33-16.78 44.18-24.83 2.85-1.54 2.62-3.41 2.63-5.65.02-20.33.01-40.65.01-60.98 10.3-6.12 20.58-12.29 30.91-18.36 13.42-7.88 26.77-15.88 40.35-23.48 12.84-7.2 25.99-13.87 38.92-20.9 14.51-7.9 28.93-15.96 43.4-23.95 3.59-2 7.18-3.99 11.1-5.66.33 2.31-.02 4.4.43 6.29.42 1.8 1.68 3.39 2.72 5.45a6.71 6.71 0 0 1-.42 3c-.67 2.11-1.34 4-1.35 5.9-.07 21.06-.13 42.12 0 63.17.04 6.46.87 12.9.93 19.35.15 14.66.02 29.31.1 43.97 0 1.74.56 3.49.99 5.68.04 4.17-.05 7.89-.4 11.89-.08 2.74.1 5.2.4 8.09.06 2.48 0 4.54-.45 6.61-3.9 1.39-3.22 3.84-2.03 6.42z"/>
  <path fill="#DDD6CA" d="M340.07 653c.3-2.72.6-5.43 1.3-8.58 1.18-1.5 1.95-2.56 2.73-3.62 16.28 8.95 32.54 17.95 48.86 26.83 18.65 10.15 37.46 20.02 56.03 30.34 14.2 7.89 28.08 16.32 42.17 24.41 5.46 3.13 11.07 5.98 16.71 9.7-.16 20.38-.34 40.03-.76 59.68-.07 3.51 1.2 5.47 4.18 7.1 16.19 8.88 32.27 17.97 48.45 26.85 15.56 8.54 31.24 16.85 46.8 25.38a2626.17 2626.17 0 0 1 35.69 19.96 827.8 827.8 0 0 1 28.8 17.14c-1.86 2.53-3.31 5.37-5.63 6.7-11.36 6.5-23 12.5-34.46 18.84-9.31 5.15-18.46 10.6-27.77 15.75-11.31 6.25-22.8 12.16-34.06 18.49-15.84 8.9-31.49 18.14-47.33 27.04-3.7 2.07-7.83 3.35-11.77 4.99-.03-14.5 0-28.99-.14-43.47-.04-4.64-.6-9.26-.89-13.9-.32-5.33-3.51-8.36-7.93-10.83-13.3-7.43-26.37-15.28-39.75-22.58-17.4-9.5-35.07-18.52-52.52-27.94-11.37-6.14-22.52-12.69-33.84-18.92-8.38-4.62-16.84-9.1-25.33-13.5-6.75-3.51-9.9-8.15-9.83-16.53.47-51.12.24-102.26.5-154.1.1-2.2-.05-3.72-.21-5.23z"/>
  <path fill="#7D7D80" d="M671.05 887.8c-9.6-5.58-19.16-11.25-28.82-16.75a2626.17 2626.17 0 0 0-35.7-19.96c-15.55-8.53-31.23-16.84-46.79-25.38-16.18-8.88-32.26-17.97-48.45-26.85-2.97-1.63-4.25-3.59-4.18-7.1.42-19.65.6-39.3.98-59.4a747.4 747.4 0 0 1 32.46 16.98c28.92 16 57.77 32.1 86.68 48.1 14.93 8.27 29.97 16.35 44.82 24.76 2.68 1.52 4.64 1.68 7.24.19 15.98-9.15 31.96-18.31 48.07-27.24 17.42-9.66 35.04-18.97 52.47-28.63 20.9-11.59 41.68-23.38 62.53-35.06.55-.3 1.27-.31 2.27-.48.37 20.3.38 40.63.36 60.96 0 2.24.22 4.1-2.63 5.65-14.85 8.05-29.44 16.57-44.18 24.83-20 11.2-40.02 22.38-60.08 33.47-14.97 8.28-30.03 16.37-45 24.61-4.65 2.56-9.16 5.37-14.28 8.33-1.32.24-2.07.2-3.16.2-.78.03-1.23.04-1.95-.11-1.07-.49-1.86-.8-2.66-1.11zm683.93 2.62c-.74.33-1.45.33-2.59-.04a8.77 8.77 0 0 0-2.3-1.34c-1.5-.4-2.7-.8-4.09-1.5-14.45-8.17-28.7-16.04-42.94-23.97-25.96-14.47-51.87-29.01-77.86-43.44a2434.52 2434.52 0 0 0-33.75-18.32c-5.84-3.12-9.48-7-8.74-14.48.76-7.55.15-15.23.16-22.85.02-10.82.06-21.63.4-32.49 1.75.02 3.18.06 4.6.11 0 0 .1-.06.08.33 2 1.78 4.03 3.16 6.05 4.55 20.5 11.56 40.9 23.29 61.51 34.64 16.83 9.27 33.98 17.94 50.83 27.17 13.34 7.3 26.5 14.97 39.62 22.67 3.63 2.13 6.44 2.54 10.27-.06 6.17-4.18 12.88-7.57 19.43-11.16 14.98-8.23 30.06-16.28 44.99-24.6 15.51-8.62 30.82-17.61 46.36-26.2 16.7-9.23 33.54-18.17 50.63-27.4.67 1.2 1.31 2.59 1.32 3.98.07 18.48.01 36.97.1 55.46.02 3.12-.77 5.32-3.67 6.95-10.71 5.99-21.26 12.27-31.97 18.25-11.99 6.7-24.12 13.15-36.15 19.78-11.2 6.17-22.35 12.43-33.51 18.66-17.1 9.53-34.24 19.01-51.25 28.7-2.79 1.59-5.01 4.16-7.53 6.6z"/>
  <path fill="#44454C" d="M1012.69 649.97c-.9-1.68-2.16-3.28-2.58-5.07-.45-1.9-.1-3.98-.11-6.43 4.42-5.5 5.53-5.02 13.22.57 5.04 3.66 10.98 6.06 16.5 9.06 4.47 2.43 9.18 4.55 13.3 7.47 4.19 2.96 8.53 3.08 13.08 2.23 3.47-.66 4.64.47 4.18 3.85-.13 1 .17 2.07.28 3.29 6.94-3.42 11.47-2.3 13.4 4.15l-4.68-2.87c-.98 2.64.23 5.29 2.36 6.04 2.32.81 4.48 2.05 7.16 3.32 4-2.99 5.63-2.53 8.34 2.76.6 1.17 2.02 2.52 3.2 2.68 3.41.46 6.9.55 10.34.38 2.3-.11 18.46 6.34 19.5 8.64.53 1.15-.19 2.88-.49 5.68 1.97-.1 4.14.2 6.01-.4 3.94-1.28 8.43 1.29 9.38 5.47.31 1.39 1.22 3.06 2.38 3.78 4.91 3.02 10.02 5.74 15.56 8.85 0-.01.5-.79 1.18-1.31.57-.44 1.68-1 2-.76.67.5 1.33 1.46 1.36 2.26.23 5.97 8.21 11.83 14.23 10.09.08 1.53.15 3 .17 4.94-.05.46-.17.6-.55.57-2.24-.72-4.23-1.18-5.94-2.13-5.49-3.06-10.8-6.43-16.33-9.43-8.18-4.44-16.6-8.45-24.7-13.02-15.76-8.87-31.27-18.17-47.06-26.97-20.9-11.65-41.97-22.98-62.95-34.47-3.68-2-7.32-4.08-11.74-6.55v13.33m104.6 37.19-3.95-.74-.49 1.3c1.06.89 2.03 1.97 3.22 2.6.66.35 1.72-.06 2.6-.12a9.44 9.44 0 0 0-1.38-3.04m21.91 12.45.02-1.19h-.48c-.03.4-.03.79.46 1.19m-73-38 .02-1.19h-.48c-.03.4-.03.79.46 1.19zm127.8 74.98c-2.02-1-4.05-2.38-6.08-4.11 2.66.03 6.08-.68 6.08 4.1zm-6.14-4.85c-1.41.31-2.84.27-4.68-.03-.74-1-1.06-1.73-1.39-2.47l.19-.2c2 .73 3.93 1.53 5.88 2.7z"/>
  <path fill="#ECECED" d="M343.98 640.57a11.7 11.7 0 0 1-2.6 3.42c.06-1.22.5-2.46 1.25-3.83.62-.03.93.07 1.35.4z"/>
  <path fill="#E7E4D8" d="M1485.62 526.63c1.3.29 2.8.83 4.36 1.74a15.47 15.47 0 0 1-4.36-1.74zm-3.89-2.13c.6 0 1.38.24 2.25.8-.64.03-1.36-.26-2.25-.8zm9.22 4.86c.6.06 1.3.4 2.05 1.06-.62-.06-1.28-.43-2.05-1.06z"/>
  <path fill="#7D7D80" d="M1351.3 1043.9c.51 1.59 1.44 3.17 1.48 4.77.17 7.8.11 15.62.14 23.9l.83 182.4 8.88.01a60.43 60.43 0 0 1-11.22 4.7c-.6-3.9-1.15-7.2-1.17-10.5-.08-17.47 0-34.93-.02-52.4-.02-40.92-.05-81.83-.04-123.22.07-6.14.08-11.8.28-17.7.14-.79.1-1.34.16-2.35.3-3.5.49-6.56.68-9.62zm29.65 200.92a11.4 11.4 0 0 1-3.58 2.24c-.25-2.64-.4-5.6 3.58-2.24zm-12.16 6.93a6.61 6.61 0 0 1-2.55 2.03 6.6 6.6 0 0 1 2.55-2.03z"/>
  <path fill="#DCD6C9" d="M1181.4 729.2a7.6 7.6 0 0 1 1.46 2.54c.07 11.1.03 21.92 0 32.74 0 7.62.61 15.3-.15 22.85-.74 7.48 2.9 11.36 8.74 14.48 11.29 6.04 22.56 12.1 33.75 18.32 25.99 14.43 51.9 28.97 77.86 43.44 14.23 7.93 28.49 15.8 42.65 24.2-2.6 3.18-4.7 6.46-7.68 8.4-6.57 4.27-13.61 7.8-20.4 11.74-7.2 4.2-14.22 8.73-21.53 12.74-14.6 8.03-29.38 15.74-44.02 23.7-8.68 4.7-17.24 9.62-25.87 14.43-10.1 5.62-20.21 11.27-30.36 16.82-3.5 1.91-7.14 3.57-10.7 5.34-.38-17-.74-34-.72-51.56 1.95-3.34 3.07-6.09-.36-8.4-1.86-2.46-3.2-5.8-5.65-7.22a4793.56 4793.56 0 0 0-62.68-35.32 6673.9 6673.9 0 0 0-57.88-31.91c-10.74-5.84-21.66-11.33-32.85-17.56-2.57-1.66-4.8-2.74-7.02-3.82-.18-.03-.36-.05-.83-.44-1.25-1.14-2.2-1.92-3.42-2.94-.42-1.42-.57-2.6-.73-3.78.07-2.05.13-4.11.26-6.9-.06-3.18-.2-5.62-.32-8.06a822 822 0 0 1 .33-11.96c.13-2.45.22-4.11.22-5.77-.04-33.28-.04-66.56-.16-99.84-.04-10.78-.41-21.55-.63-32.33.09-.8.17-1.6.12-2.78-.14-4.52-.14-8.65-.14-13.71 4.42 2.47 8.06 4.54 11.74 6.55 20.98 11.49 42.05 22.82 62.95 34.47 15.79 8.8 31.3 18.1 47.05 26.97 8.11 4.57 16.53 8.58 24.71 13.02 5.52 3 10.84 6.37 16.33 9.43 1.71.95 3.7 1.4 5.94 2.13z"/>
  <path fill="#DCD6CA" d="M676.34 1068.98c-.15 1.31-.42 2.62-.42 3.93 0 60.7.03 121.4.06 182.09 0 1.32.16 2.65.23 4.44a453.2 453.2 0 0 1-28.4-13.64c-11.11-5.9-21.99-12.26-33-18.35-11.47-6.33-22.99-12.55-34.46-18.87-15.37-8.47-30.76-16.92-46.06-25.53a368.3 368.3 0 0 1-18.61-11.3c-3.84-2.48-5.75-5.9-5.73-10.86.14-58.3.09-116.62.44-175.34 5.38 2.63 10.38 5.74 15.46 8.7 8.54 4.97 17.05 9.97 25.7 14.73 12.86 7.06 25.87 13.86 38.75 20.9 8.4 4.58 16.65 9.43 25.04 14.05 8.78 4.85 17.69 9.48 26.46 14.34 10.03 5.57 19.97 11.3 30.7 17.37.49-3.26 1.4-6.6 1.42-9.94.13-24.81.05-49.63.16-74.45 0-1.76.95-3.51 1.6-4.81.18 15.38.2 30.31.3 45.24.07 12.44.24 24.87.36 37.3zm673.8 5.05.08 122.75c.01 17.47-.06 34.93.02 52.4.02 3.3.58 6.6.87 10.32-3.75-1.08-7.68-2.25-11.2-4.18-9.85-5.4-19.46-11.27-29.32-16.69-12.74-7-25.73-13.56-38.43-20.63-26.93-14.98-53.74-30.18-80.61-45.27-4.02-2.26-5.82-4.96-5.82-10.23.04-54.57-.4-109.14-.63-163.71-.02-4.3.55-8.6 1.14-13.15 5.07 2.46 9.82 5.21 14.6 7.9l36.57 20.4c12.08 6.74 24.14 13.5 36.26 20.18 11.84 6.53 23.8 12.87 35.6 19.46 6.42 3.59 12.61 7.6 18.97 11.3 6.13 3.57 12.34 7 18.66 10.58l3.24-1.43z"/>
  <path fill="#E7E4D8" d="M1350.18 1073.56c-1.2.98-2.37 1.5-3.28 1.9-6.32-3.58-12.53-7.01-18.66-10.58-6.36-3.7-12.55-7.71-18.97-11.3-11.8-6.6-23.76-12.93-35.6-19.46-12.12-6.67-24.18-13.44-36.26-20.18-12.19-6.8-24.38-13.59-36.56-20.4-4.79-2.69-9.54-5.44-14.6-8.35a15 15 0 0 1-1.15-3.88c3.61-2.14 7.25-3.8 10.75-5.71 10.15-5.55 20.25-11.2 30.36-16.82 8.63-4.8 17.19-9.73 25.87-14.44 14.64-7.95 29.41-15.66 44.02-23.69 7.3-4.01 14.32-8.55 21.53-12.74 6.79-3.95 13.83-7.47 20.4-11.74 2.98-1.94 5.09-5.22 7.89-8.12 1.48.18 2.66.6 4.18 1.38.56 1.1.78 1.83 1.01 2.56.02 48.33.05 96.65-.04 145.82.01 1.67.12 2.5.23 3.32-.04.7-.08 1.38-.06 2.42-.13 3.4-.32 6.46-.88 10.04-.26 1.18-.17 1.83-.08 2.5-.02 5.66-.03 11.33-.1 17.47zm-674.64-87.57c-.51 1.75-1.46 3.5-1.46 5.26-.1 24.82-.03 49.64-.16 74.45-.01 3.34-.93 6.68-1.42 9.94-10.73-6.08-20.67-11.8-30.7-17.37-8.77-4.86-17.68-9.5-26.46-14.34-8.39-4.62-16.64-9.47-25.04-14.06-12.88-7.03-25.89-13.83-38.75-20.9-8.65-4.75-17.16-9.75-25.7-14.72-5.08-2.96-10.08-6.07-15.45-9.17a19 19 0 0 1-.4-4.66c3.95-2.06 8.09-3.34 11.78-5.41 15.84-8.9 31.5-18.14 47.33-27.04 11.26-6.33 22.75-12.24 34.06-18.49 9.31-5.14 18.46-10.6 27.77-15.75 11.46-6.33 23.1-12.35 34.46-18.84 2.32-1.33 3.77-4.17 5.64-6.7.8-.07 1.6.24 2.67 1.1a70.73 70.73 0 0 1 2 5.2c-.01 13.8-.1 27.14-.55 40.63-.52 8.13-.7 16.11-.8 24.1 0 .26.76.54 1.27 1.26.04 8.8-.03 17.16-.1 25.5z"/>
  <path fill="#FFF" d="M503.01 1116.61c.21-.96.4-1.5.6-2.04l.85.11v19.6l-1.46.05.01-17.72z"/>
  <path fill="#44454C" d="M1012.63 818.01c.54 1.16.7 2.34 1.02 4.06.12.95.07 1.37.03 1.78-.82.17-1.64.34-2.77.55-1.5-2.55-2.19-5 1.72-6.39z"/>
  <path fill="#E7E4D8" d="M1184.04 921.42c3.46 1.87 2.34 4.62.4 7.51-.39-2.29-.4-4.68-.4-7.5z"/>
  <path fill="#FAFAFA" d="M1018.06 825.48c2.16.75 4.38 1.83 6.74 3.22a37.76 37.76 0 0 1-6.74-3.22z"/>
  <path fill="#FFF" d="M503.02 1020.25c.61-.58 1.2-.8 1.8-1v4.1l-1.13.13c-.22-.95-.45-1.9-.67-3.23z"/>
  <path fill="#DCD6CA" d="M844.32 996.73a19.6 19.6 0 0 1-.46-5.42c.36 1.53.54 3.35.46 5.42z"/>
  <path fill="#ECECED" d="M339.78 653.22c.45 1.29.6 2.8.5 4.55-.43-1.29-.6-2.8-.5-4.55z"/>
  <path fill="#FFF" d="M503.47 963.74c.69.6 1.16 1.42 1.63 2.25l-1.4.52c-.15-.84-.3-1.69-.23-2.77z"/>
  <path fill="#FAFAFA" d="M1014 823.99c-.28-.55-.23-.97-.1-1.68a9 9 0 0 1 2.99 2.38c-.84.04-1.7-.26-2.9-.7z"/>
  <path fill="#FFF" d="M427.66 876.5c.35-.54.91-.86 1.47-1.19l.38.84c-.54.2-1.09.38-1.85.36z"/>
  <path fill="#7D7D80" d="M1351.59 1041.04a5.1 5.1 0 0 1-.46-2.78c.36.64.55 1.67.46 2.78z"/>
  <path fill="#555860" d="M1351.35 891.84c-.47-.58-.7-1.3-.94-2.42.51-.06 1.03.27 1.63.91-.1.66-.28 1-.69 1.5z"/>
  <path fill="#FFF" d="M396.91 1519v-95.89c0-8.33 0-8.36 8.5-8.5 4.67-.07 9.34.21 13.99-.02 18.24-.93 35.29 15.06 38.75 30.73 4.92 22.33 5.31 44.42-2.5 65.86-4.8 13.2-15.12 21.89-29.65 23.53-8.22.93-16.6.46-24.9.6-2.9.04-4.17-1.4-4.1-4.33.08-3.83-.05-7.66-.09-11.99z"/>
  <path fill="#E7E4D8" d="M1664.13 1736.98c.47-.17.89-.04 1.61.22-.04.56-.38.98-.72 1.4-.31-.44-.63-.88-.9-1.62z"/>
  <path fill="#FAFAFA" d="M1663.67 1700.04c.37.4.45.86.4 1.63-.62.1-1.13-.14-1.64-.37.31-.41.63-.82 1.24-1.26z"/>
  <path fill="#C3C4C5" d="M1708.42 1658.16c-.06-.08.15-.32.15-.32s-.1.4-.15.32z"/>
  <path fill="#FAFAFA" d="M1225.73 1665.89c9.63 4.7 11.53 12.63 10.2 21.94-.87 6.16-9.14 13.91-15.67 14.17-8.28.33-16.58.08-25.43.08v-38.7c10.22.78 20.38 1.57 30.9 2.5zm612.15-1.88c8.43.08 16.1.76 21.58 7.73 6.55 8.31 4.7 19.99-3.87 26.17-4.25 3.07-8.6 4.53-13.8 4.33-6.3-.25-12.6-.06-19.78-.06v-7.73c-.02-8.65.14-17.3-.15-25.94-.12-3.65 1.2-4.67 4.57-4.49 3.65.2 7.31.01 11.45-.01z"/>
  <path fill="#45464C" d="M1817.7 1691.93a71.68 71.68 0 0 1-.49-10.53c.37 3.17.61 6.8.49 10.53z"/>
  <path fill="#ECECED" d="m1845.41 1706.35.07 1.2c-.08-.22-.16-.43-.17-.98.07-.34.11-.2.1-.22z"/>
  <path fill="#FAFAFA" d="M1347 1712.2c-6.23.02-11.97.02-18.6.02l16.86-45.97 1.33-.32 16.49 46.27H1347zm-1147.47-17.62a4281.3 4281.3 0 0 0 10.6-27.94l1.43.2 17.1 45.1h-35.32c2.1-5.96 4.04-11.5 6.2-17.36zm1527.83 17.58-3.56-.45 16.15-46.08 1.58-.24 16.72 46.82c-10.74 0-20.59 0-30.89-.05z"/>
  <path fill="#ECECED" d="M1736.3 1666.1c-3.57-2.54-.69-3.1 1.56-4.03a11.9 11.9 0 0 1-1.56 4.03z"/>
  <path fill="#FAFAFA" d="M552.97 1695.01c.07-7.36.13-14.73.1-22.55.36-8.5.37-8.61 8.57-8.44 6.3.13 12.66.12 18.87 1.02 12.87 1.86 19.36 19.24 10.97 29.19-4.04 4.8-9.06 8.14-15.9 7.87-6.13-.23-12.3.14-18.44-.07-1.33-.05-2.6-1.45-4.03-2.63-.06-.85 0-1.3.07-2.27-.08-1.04-.14-1.58-.2-2.12z"/>
  <path fill="#45464C" d="M623.01 1680.57c0 .43-.5.43-.74.43-.25-2.34-.25-4.67-.25-7.01l1 .01v6.57z"/>
  <path fill="#333334" d="M552.75 1695.15c.29.4.35.94.32 1.65-.25-.38-.4-.94-.32-1.65z"/>
  <path fill="#45464C" d="M675.67 986.44c-.07-8.8 0-17.15.1-26.4-.07-8.97-.17-17.02-.27-25.07.1-13.34.2-26.68.33-40.89L676 889l2.64.13c3.13 2.17 5.68 4.7 8.69 6.39 11.88 6.7 23.94 13.07 35.86 19.69 13.29 7.37 26.49 14.92 39.75 22.33 10.48 5.86 21.05 11.56 31.5 17.46a6599.6 6599.6 0 0 1 45.89 26.24c.75.43 1.17 1.44 2.45 3.1l-164.28 90.54a46.64 46.64 0 0 0-1.82-5.8 1201.4 1201.4 0 0 1-.7-37.4c-.1-14.93-.12-29.86-.3-45.24z"/>
  <path fill="#44454C" d="M1012.4 653.35c.53 10.56.9 21.33.94 32.1.12 33.29.12 66.57.16 99.85 0 1.66-.1 3.32-.35 5.32a15 15 0 0 1-1.07-4.88c-.07-14.66.06-29.31-.09-43.97-.06-6.45-.9-12.9-.93-19.35-.13-21.05-.07-42.11 0-63.17 0-1.9.68-3.79 1.35-5.9zm.29 149.95c.39 2.17.52 4.6.46 7.36a36.43 36.43 0 0 1-.46-7.35z"/>
  <path fill="#DCD6CA" d="M675.66 889.02c.3 1.39.25 2.8.08 4.6-.67-1-1.2-2.4-1.75-4.17.44-.38.89-.4 1.67-.43z"/>
  <path fill="#45464C" d="M1117.6 687.37c.56 1.08.81 1.95 1.07 2.83-.88.06-1.94.47-2.6.12-1.2-.63-2.16-1.71-3.22-2.6l.49-1.3c1.31.25 2.63.5 4.26.95zm21.35 12.23a1.78 1.78 0 0 1-.2-1.18h.47c0 .4-.01.8-.27 1.19zm-73-38a1.78 1.78 0 0 1-.2-1.18h.47c0 .4-.01.8-.27 1.19z"/>
  <path fill="#DCD6CA" d="M1350.46 1055.86a2.44 2.44 0 0 1-.2-1.83c.3.49.34 1.04.2 1.83zm-675.3-120.74c.44 7.9.54 15.95.5 24.46-.54.18-1.3-.1-1.3-.37.1-7.98.28-15.96.8-24.1z"/>
</svg>
