<svg xmlns="http://www.w3.org/2000/svg" xml:space="preserve" viewBox="0 0 1290 1290">
  <path fill="#45464B" d="M8.79 388.05c-.94-3.16.6-4.93 3.24-6.4 18.01-10.09 35.92-20.36 53.98-30.36 24.75-13.72 49.62-27.25 74.43-40.88 22.18-12.2 44.33-24.43 66.52-36.61 41-22.52 82.08-44.92 123.02-67.57 36.86-20.4 73.5-41.16 110.35-61.58C498 112.69 555.76 80.89 613.48 49.02c9.03-4.99 18.14-9.85 27.08-15.01 3.43-1.98 6.36-1.2 9.4.45 15.79 8.6 31.61 17.12 47.33 25.84 28.08 15.57 56.08 31.3 84.15 46.9 33.6 18.67 67.19 37.35 100.86 55.89 42.14 23.2 84.4 46.16 126.54 69.38 23.31 12.84 46.41 26.09 69.7 38.99 23.14 12.81 46.43 25.37 69.6 38.14a10528.4 10528.4 0 0 1 62.38 34.66c21.04 11.78 42.01 23.66 63.01 35.5 1.15.66 2.23 1.43 3.45 2.85-1.17 3.08-1.87 6.26-3.83 7.66-5.21 3.7-10.9 6.75-16.52 9.86-22.56 12.49-45.18 24.84-67.71 37.36-7.37 4.1-14.49 8.66-21.8 12.89-6.82 3.95-13.75 7.73-20.63 11.59-7.2 4.05-14.41 8.1-21.95 12.2-1.47.96-2.53 2.04-3.8 2.74-32.09 17.74-64.2 35.44-96.31 53.15-17.77 9.8-35.54 19.6-53.28 29.43-4.05 2.24-7.7 2-11.69-.5a478.32 478.32 0 0 0-21.55-12.51c-14.11-7.82-28.33-15.43-42.43-23.25-12.76-7.08-25.42-14.3-38.1-21.5-11.91-6.77-23.73-13.7-35.7-20.35-4.81-2.67-9.93-4.8-15.13-7.45-2.58-1.46-4.98-2.56-7.3-3.82-13.27-7.22-26.58-14.38-39.78-21.74-25.24-14.08-50.4-28.3-75.61-42.43-12.6-7.07-25.22-14.1-37.91-21.49-1.51-.38-3.28-1-4.33-.37-11.17 6.58-22.14 13.5-33.35 20.02-10.27 5.98-20.73 11.64-31.19 17.3-9.86 5.34-19.95 10.26-29.7 15.79-16.1 9.12-32.02 18.56-47.98 27.9-4.86 2.85-9.64 5.8-14.82 8.78-1.4.54-2.5.91-3.5 1.47-22.2 12.44-44.35 24.96-66.58 37.36-28.28 15.78-56.64 31.44-84.91 47.24-3.19 1.78-5.9 2.17-9.27.28-11.15-6.29-22.49-12.26-33.7-18.46-26.9-14.9-53.79-29.85-80.68-44.78-6.94-3.85-13.9-7.68-20.84-11.52-6.48-3.59-12.95-7.18-19.76-10.93-14.64-8.27-28.89-16.48-43.27-24.46-23.27-12.9-46.6-25.7-69.93-38.47-14.42-7.9-28.9-15.7-43.35-23.55z"/>
  <path fill="#56585F" d="M484.94 473.79c4.82-2.9 9.6-5.85 14.46-8.7 15.96-9.34 31.88-18.78 47.97-27.9 9.76-5.53 19.85-10.45 29.71-15.79 10.46-5.66 20.92-11.32 31.19-17.3 11.2-6.51 22.18-13.44 33.35-20.02 1.05-.62 2.82 0 3.96.62-.48 2.2-.83 3.83-.82 5.46.14 22.27.44 44.53.5 66.8.08 35.04 0 70.09 0 105.13-8.1 4.23-16.25 8.33-24.26 12.72-41.32 22.6-82.6 45.28-123.9 67.94-1.75.97-3.4 2.13-5.16 3.05-5.64 2.94-7.93 7.6-7.9 13.88.22 64.45.35 128.9.53 193.35.03 9.16-.16 18.33.3 27.47.37 7.29-2.65 11.73-8.97 15.12-23.18 12.43-46.19 25.17-69.25 37.82-25.39 13.91-50.75 27.88-76.2 41.7-1.45.78-3.56.35-5.5-.24-.14-56.96-.13-113.22-.1-169.47 0-2.15.2-4.3.65-6.41 2.04-.14 3.97.14 5.4-.58 5.9-2.95 11.67-6.17 17.46-9.35 14.66-8.06 29.33-16.11 43.95-24.25 9.68-5.39 19.26-10.94 28.92-16.37 6.63-3.73 13.3-7.4 19.99-11.04 13.59-7.4 27.2-14.77 41.9-22.74-2.45-2.1-4.07-3.87-6.04-5.06-3.24-1.97-6.8-3.43-10.09-5.32-11.98-6.87-23.86-13.9-35.86-20.72-12.8-7.27-25.69-14.36-38.54-21.52-9.05-5.04-18.18-9.95-27.14-15.13A1254.08 1254.08 0 0 1 330 625.66c.7-1.62 1.1-3.28 2.16-4.05 3.47-2.53 7.07-4.94 10.82-7.03 18.68-10.4 37.44-20.63 56.12-31.01 26.66-14.8 53.18-29.87 80-44.38 4.74-2.57 6.08-5.33 6.06-10.38-.06-12.28.66-24.56.75-36.84.05-6.06-.62-12.12-.97-18.18z"/>
  <path fill="#DAD6CB" d="M645.62 562.09c-.36-35.04-.28-70.09-.36-105.13-.06-22.27-.36-44.53-.5-66.8-.01-1.63.34-3.25.9-5.12 12.98 6.8 25.6 13.83 38.2 20.9 25.2 14.14 50.37 28.35 75.6 42.43 13.2 7.36 26.52 14.52 39.8 21.74 2.31 1.26 4.71 2.36 7.3 4.27-.03 17.7.02 34.67-.65 51.62-.32 7.84 3.08 12.43 9.6 15.82 9.88 5.14 19.68 10.46 29.42 15.87a15377.8 15377.8 0 0 1 64.01 35.78 2714.96 2714.96 0 0 1 51.07 29.26c-2.58 3.24-4.54 6.95-7.61 8.85-12.66 7.8-25.56 15.2-38.55 22.43-15.75 8.78-31.73 17.15-47.52 25.85-16.64 9.16-33.15 18.58-49.82 27.69-2.49 1.35-5.57 1.62-8.38 2.4-.04-16.5-.21-33-.07-49.49.06-6.15-2.36-10.68-7.5-13.65a3228.48 3228.48 0 0 0-38.17-21.62c-20.3-11.35-40.6-22.7-60.98-33.93a3148.73 3148.73 0 0 0-40.79-21.93c-4.8-2.55-9.76-4.84-15-7.24z"/>
  <path fill="#56585F" d="m1124.87 474.12 21.62-12.15c6.88-3.86 13.8-7.64 20.64-11.6 7.3-4.22 14.42-8.78 21.79-12.88 22.53-12.52 45.15-24.87 67.7-37.36 5.62-3.1 11.32-6.16 16.53-9.86 1.96-1.4 2.66-4.58 4-7.38 6.12.78 8 2.98 8.04 9.56.04 9.32-.19 18.65-.18 27.97.05 44.13.02 88.25.33 132.38.04 6.65-2.1 10.5-8.06 13.72-43.16 23.35-86.15 47.03-129.16 70.66-6.27 3.44-12.26 7.4-18.6 10.7-3.63 1.87-4.93 4.39-4.96 8.3-.14 17.97-.45 35.93-1.09 54.38-1.36.3-2.46.35-3.28-.1-6.78-3.78-13.5-7.68-20.27-11.48-18.4-10.3-36.8-20.62-55.26-30.83-8.22-4.55-16.62-8.75-24.86-13.27-11-6.03-21.95-12.16-32.85-18.35a247.2 247.2 0 0 1-15.95-9.92c1.52-6.61 7.42-8.27 11.89-10.85 20.86-12.02 42.03-23.5 63.06-35.23 24.74-13.82 49.38-27.83 74.24-41.43 4.88-2.67 5.77-6.56 5.71-11.11-.24-17.96-.67-35.91-1.03-53.87z"/>
  <path fill="#DDD7CB" d="M8.52 388.29c14.72 7.6 29.2 15.4 43.62 23.3 23.33 12.79 46.66 25.57 69.93 38.48 14.38 7.98 28.63 16.2 43.14 24.94-.24 18.11-.5 35.59-1.2 53.04-.25 5.82 1.97 9.26 6.9 11.97 42.74 23.44 85.41 46.97 128.05 70.59 7.22 4 14.16 8.54 21.1 13.19-5.87 4.37-11.37 8.83-17.4 12.34-14.12 8.2-28.52 15.93-42.76 23.9-11.98 6.72-23.88 13.57-35.87 20.27-9.45 5.29-18.87 10.65-28.52 15.58-9.3 4.76-17.55 11.83-28.46 13.09-.02-12.16.07-24.32-.1-36.47-.07-5.8.3-11.87-1.3-17.3-1.12-3.8-4.62-7.78-8.14-9.89a1323.25 1323.25 0 0 0-45.84-25.94c-30.46-16.65-61.02-33.1-91.54-49.63-.72-.39-1.53-.6-2.29-.94-9.05-4.05-12.95-11.02-12.86-20.92.44-49.93.64-99.86 1.09-149.79.03-3.2 1.43-6.38 2.45-9.81z"/>
  <path fill="#DAD6CB" d="M325.16 798.98c-.11 2.15-.31 4.3-.32 6.45-.02 56.25-.03 112.5-.13 169.23-10.49-4.35-21.1-8.74-31.2-14.1-18.34-9.71-36.42-19.91-54.5-30.08-22.15-12.46-44.21-25.07-66.28-37.66-5.25-3-5.69-8.25-5.7-13.45-.05-30.31-.02-60.63-.01-90.94 0-23.48.03-46.97.45-70.93 1.5-.22 2.74-.21 3.68.33 10.88 6.27 21.61 12.8 32.59 18.9 21.22 11.79 42.6 23.3 63.87 35 17.06 9.4 34.04 18.93 51.08 28.36.77.43 1.75.47 4.1 1.07 0-9.92-.05-19.13.08-28.35 0-.95 1.05-1.88 1.81-2.39.29 9.81.38 19.18.48 28.56z"/>
  <path fill="#56585F" d="M1124.42 718.08c.2 5.47.54 10.94.55 16.42.12 41.13.16 82.26.25 123.4.01 7.82.05 15.65.24 23.47.16 6.86-2.6 11-9.03 14.39-24.73 13.03-49.01 26.89-73.56 40.28-16.35 8.92-32.87 17.54-49.3 26.33-6.12 3.28-12.2 6.63-19.1 9.86-3.8-.03-5.6-.64-5.61-4.48-.1-18.84-.81-37.68-.77-56.52.08-29.89.6-59.77.9-89.66.07-6.15.03-12.3.03-18.45 0-2.03-.04-4.05.36-6.1 3.1-.66 6.07-.8 8.45-2.04 12-6.28 23.86-12.8 35.73-19.31 22.9-12.57 45.77-25.22 68.7-37.76 10.7-5.85 21.63-11.31 32.2-17.4 3.29-1.9 6.07-3.9 9.96-2.43z"/>
  <path fill="#DAD6CB" d="M965.86 975.07c-3.58-1.12-7.45-1.7-10.7-3.44a4966.33 4966.33 0 0 1-65.56-35.85c-23.34-13.02-46.53-26.3-69.78-39.47-.86-.48-1.73-.95-2.63-1.35-5.8-2.57-8.3-6.82-8.27-13.33.14-46.47.03-92.93.02-139.4 0-8.09.07-16.18.51-24.73a93.9 93.9 0 0 1 14.68 6.29c6.82 3.72 13.34 8 20.16 11.72 19.3 10.54 38.79 20.73 58 31.43 15.6 8.68 30.84 18.03 46.4 26.8 5.14 2.88 10.79 4.85 16.28 7.7.1 5.8.11 11.12.14 16.45l.75 157.18z"/>
  <path fill="#5C5D62" d="M412.22 1165v100.47c-10.04 0-19.64.1-29.25-.06-3.23-.06-3.82-2.54-3.78-5.36.28-19.82.56-39.63.7-59.45.12-17.16.07-34.32.08-51.48 0-.6-.13-1.2-1.38-2.25-1.22 2.71-2.62 5.36-3.64 8.14-10.38 28.42-20.7 56.87-31.02 85.31-2.33 6.41-4.72 12.8-6.88 19.27-1.4 4.17-3.76 6.47-8.43 6.04-2.64-.24-5.32.01-7.98-.05-8.34-.2-8.3-.22-11.2-8.25-12.3-34.1-24.63-68.2-37-102.3-1.22-3.34-2.82-6.54-4.24-9.81l-1.46.3c-.13 2.02-.42 4.04-.38 6.05.71 35.46 1.5 70.91 2.18 106.37.15 8.08-.23 8.17-8.54 7.97-7.61-.19-15.24-.04-23.56-.04v-5.9l-.02-154.93c0-7.35.53-7.86 8.01-7.82 9.83.05 19.66.28 29.48.14 4.9-.07 7.22 1.81 8.88 6.6 10.17 29.21 20.76 58.28 31.15 87.42 2.18 6.1 4.04 12.33 6.2 18.46.61 1.76 1.73 3.35 3.26 6.23 1.84-3.23 3.36-5.2 4.16-7.42 10.64-29.41 21.21-58.85 31.72-88.3a275.85 275.85 0 0 0 5.5-17.12c1.19-4.19 3.63-5.91 7.98-5.85 10.66.16 21.32.02 31.99.04 6.48.01 7.44.91 7.45 7.6.06 19.83.02 39.65.02 59.98z"/>
  <path fill="#E7E5D9" d="M324.49 769.99c-.57.94-1.61 1.87-1.62 2.82-.13 9.22-.08 18.43-.08 28.35-2.35-.6-3.33-.64-4.1-1.07-17.04-9.43-34.02-18.96-51.08-28.36-21.27-11.7-42.65-23.21-63.87-35-10.98-6.1-21.7-12.63-32.59-18.9-.94-.54-2.18-.55-3.66-.8a45.65 45.65 0 0 1-.46-7.6c10.93-1.7 19.19-8.78 28.48-13.54 9.65-4.93 19.07-10.3 28.52-15.58 11.99-6.7 23.89-13.55 35.87-20.26 14.24-7.98 28.64-15.7 42.75-23.91 6.04-3.51 11.54-7.97 17.75-12.23a9.2 9.2 0 0 1 4.4 1.53c-.11 41.48-.16 82.55-.22 123.61-.01 6.98-.06 13.96-.1 20.94zm640.41 30.99c-5.42-2.39-11.07-4.36-16.2-7.24-15.57-8.77-30.8-18.12-46.4-26.8-19.22-10.7-38.71-20.9-58.01-31.43-6.82-3.73-13.34-8-20.16-11.72-4.61-2.52-9.51-4.52-14.64-6.74-.72-2.1-1.07-4.2-1.4-6.7 2.85-1.18 5.93-1.45 8.42-2.8 16.67-9.11 33.18-18.53 49.82-27.7 15.8-8.69 31.77-17.06 47.52-25.84a1020.24 1020.24 0 0 0 38.55-22.43c3.07-1.9 5.03-5.61 7.97-8.72a22.79 22.79 0 0 1 5.98 4.74c-.08 45.89-.1 91.32-.1 136.75 0 3.48.24 6.96.16 10.88-.65 8.87-1.08 17.31-1.52 25.75z"/>
  <path fill="#45454D" d="M966.62 774.8c-.13-3.49-.36-6.97-.36-10.45a13612 13612 0 0 1 .46-136.8 13.9 13.9 0 0 1 4.24-.58c5.33 3.2 10.59 6.5 15.99 9.56a2393.5 2393.5 0 0 0 32.85 18.35c8.24 4.52 16.64 8.72 24.86 13.27 18.46 10.2 36.86 20.53 55.26 30.83 6.78 3.8 13.49 7.7 20.27 11.48.82.45 1.92.4 3.26.57.65 2.05.91 4.1 1.08 6.6-4-1.02-6.78.99-10.06 2.88-10.58 6.09-21.5 11.55-32.22 17.4-22.92 12.54-45.78 25.2-68.7 37.76-11.86 6.5-23.73 13.03-35.72 19.3-2.38 1.25-5.34 1.39-8.76 1.76-.86-5.86-.9-11.45-1.18-17.03-.08-1.65-.83-3.27-1.27-4.9z"/>
  <path fill="#5D5E62" d="M1188.02 1201.02c-14.88-.38-11.8 1.63-12.22-12.01-.04-1.17.07-2.34.15-3.5.47-6.5 1.17-7.3 7.87-7.34 18.63-.08 37.27-.03 56.45-.03.2 2.8.5 5.05.5 7.3.04 16.17-.23 32.34.13 48.5.16 7.54-2.33 12.73-8.6 17.22-27.88 19.94-71.23 21.87-98.66 3.64-4.22-2.8-8.32-6.3-11.3-10.35-12-16.29-20.3-33.88-18.46-55.02.97-11.07-.11-22.38 1.46-33.34 3.32-23.1 14.5-41.94 35.17-53.52 6.68-3.74 15.16-4.64 22.97-5.9 14.73-2.4 29.3-.75 43.26 4.45 14.67 5.47 24.26 16.09 28.8 31.06 1.7 5.54 2.8 11.25 4.36 17.63-9.76 0-19 .15-28.21-.16-1.34-.05-2.92-2.07-3.83-3.52-2.82-4.52-4.88-9.58-8.17-13.7-2.58-3.23-6.19-6.87-9.93-7.73-20.4-4.66-31.2-3.78-44.46 14.61-5.73 7.96-6.58 17.33-6.46 26.74.16 12.66.22 25.34 1.06 37.96 1.29 19.5 16.65 37.23 39.17 35.37a96.44 96.44 0 0 0 20.42-3.66c5.6-1.72 8.77-6.18 8.35-12.7-.35-5.3-.12-10.65-.06-15.98.05-3.96-1.95-5.86-5.77-5.94-4.5-.08-9-.06-14-.08z"/>
  <path fill="#5C5D62" d="M847.08 1097.35h27.47c-1.23 2.15-1.9 3.74-2.92 5.03-16.96 21.35-33.86 42.75-51.04 63.91-3.13 3.85-3.06 6.6-.43 10.58 18.85 28.46 37.5 57.05 56.2 85.6.52.79.87 1.68 1.78 3.49-12.5 0-24.24.22-35.97-.2-2.15-.08-4.9-2.3-6.2-4.3a4027.27 4027.27 0 0 1-36.51-57.85c-3.26-5.25-4.92-5.78-9.47-1.53-.12.11-.22.25-.35.35-10.6 8.1-15.34 18.37-13.85 32.08 1.1 10.01.22 20.24.22 30.72h-32.62v-167.36c1.27-.14 2.68-.41 4.1-.42 7.66-.05 15.33.15 22.99-.12 4.04-.14 5.43 1.03 5.41 5.29-.08 20.16.16 40.32.39 60.48.03 2.34.72 4.68 1.33 8.42 11.02-14.03 21.14-26.74 31.05-39.61 7.3-9.48 14.4-19.1 21.42-28.8 4.24-5.87 10.14-6.34 17-5.76z"/>
  <path fill="#5B5C60" d="M27.43 1163v-58.95c.01-6.74.1-6.88 6.56-6.83 17.64.16 35.33-.3 52.92.72 34.92 2.03 61.5 28.3 65.66 62.8 1.91 15.85 2.4 31.73-1.14 47.17-6.64 28.91-24.48 47.8-53.72 54.83-7.06 1.7-14.45 2.5-21.71 2.72-14.3.4-28.63-.04-42.95.2-4.43.08-5.99-.95-5.94-5.75.29-32.13.25-64.27.32-96.91m32 3.5c.12 22.13.25 44.25.33 66.38.01 3.1.82 5.21 4.46 5.13 7.15-.17 14.34.13 21.45-.46 12.65-1.05 22.75-6.78 27.94-18.74 10.05-23.18 9.91-47.15 2.38-70.75-4.04-12.67-13.97-21.19-27.35-23.77-7.08-1.37-14.57-.74-21.87-.83-6.43-.08-7.27.75-7.31 7.1-.08 11.64-.03 23.3-.03 35.94z"/>
  <path fill="#5C5D62" d="M955.13 1234.87c-1.77-8.77-4.65-17.18-4.77-25.63-.5-35.47-.1-70.95-.25-106.43-.01-4.24.84-5.96 5.45-5.7 7.14.4 14.33.24 21.48.05 4.33-.11 5.83 1.65 5.82 5.94-.07 23.15-.07 46.3.2 69.45.18 14.46.43 28.96 1.48 43.38 1.22 16.78 11.6 22.8 26.78 23.77 19.57 1.23 30.5-8.06 32.77-27.56.5-4.29.64-8.63.67-12.95.2-31.98.4-63.95.36-95.93 0-4.67 1.63-6.18 6.08-6.08 8.47.2 16.95.06 26.06.06.11 1.97.3 3.71.3 5.46.01 28.64.04 57.3-.01 85.94-.01 7.66-.32 15.31-.43 22.97-.39 28.22-16.55 46.37-42.24 52.98-22.5 5.8-44.68 3.42-64.34-10.6-6.75-4.8-11.78-11.2-15.4-19.12z"/>
  <path fill="#5B5C60" d="M649.97 1097.77c10.04 0 10.04 0 10.04 9.43v16.03h-5.86c-13 .1-25.99.3-38.98.25-4.25-.02-6.15 1.87-6.33 5.9-.07 1.66-.05 3.32-.05 4.99v131.23c-10.47 0-20.57.12-30.66-.18-.99-.03-2.54-2.55-2.7-4.04-.29-2.58.52-5.25.52-7.89.05-40.83.04-81.66.03-122.49 0-7.54-.41-7.96-7.86-7.98-11.83-.03-23.66 0-35.5-.01-7.19 0-7.38-.2-7.4-7.15-.02-5.79 0-11.58 0-18.1h124.75z"/>
  <path fill="#5C5D62" d="M504.8 1202.57c.29 3.13-1.07 3.84-3.55 3.84-18.96-.07-37.91-.08-56.87 0-2.77 0-3.86-.96-3.8-3.77.14-5.99.15-11.98.01-17.96-.06-2.83 1.03-3.78 3.8-3.74 18.62.29 37.23.56 55.85.6 3.9.02 4.78 1.62 4.62 5.12-.23 5.14-.05 10.3-.05 15.91z"/>
  <path fill="#5F6064" d="M694 1206.03h-45.25v-24.48h63.4v24.48H694zm-494.9 52.95c-9.54 11.82-23.97 11.26-31.2-1.18-3.34-5.75-2.3-12.02.37-17.75 2.45-5.25 7.29-6.99 12.85-6.91 1.17.02 2.33.02 3.5.1 15.69.97 21.73 11.42 14.48 25.74z"/>
  <path fill="#7D7C81" d="M966.4 775.23c.66 1.2 1.41 2.82 1.5 4.47.27 5.58.31 11.17.75 17.05.33 2.32.37 4.34.37 6.37 0 6.15.04 12.3-.03 18.45-.3 29.89-.82 59.77-.9 89.66-.04 18.84.67 37.68.77 56.52.01 3.84 1.81 4.45 5.26 4.55a43.34 43.34 0 0 1-7.84 2.87c-.67-52.5-.92-104.89-1.17-157.28-.03-5.33-.04-10.65-.14-16.44.36-8.91.8-17.35 1.44-26.22zM971 626.6c-1.3.4-2.57.43-4.22.5-2.23-1.46-4.09-2.96-6.3-4.6-17.42-9.77-34.45-19.44-51.54-29.03-21.31-11.97-42.64-23.9-64.01-35.78a1218.19 1218.19 0 0 0-29.42-15.87c-6.52-3.4-9.92-7.98-9.6-15.82.67-16.95.62-33.93.86-51.34 4.98 1.92 10.1 4.05 14.91 6.72 11.97 6.65 23.79 13.58 35.7 20.34 12.68 7.2 25.34 14.43 38.1 21.5 14.1 7.83 28.32 15.44 42.43 23.26A478.32 478.32 0 0 1 959.46 559c3.99 2.49 7.64 2.73 11.7.49 17.73-9.84 35.5-19.63 53.27-29.43 32.1-17.7 64.22-35.4 96.31-53.15 1.27-.7 2.33-1.78 3.8-2.73.69 17.9 1.12 35.85 1.36 53.81.06 4.55-.83 8.44-5.71 11.1-24.86 13.61-49.5 27.62-74.24 41.44-21.03 11.73-42.2 23.21-63.06 35.23-4.47 2.58-10.37 4.24-11.9 10.85zm-646.14-1.58-4.34-1.46c-7.4-4.4-14.34-8.95-21.56-12.95A35564.25 35564.25 0 0 0 170.92 540c-4.94-2.7-7.16-6.14-6.92-11.96.72-17.45.97-34.93 1.54-52.88 6.6 3.11 13.08 6.7 19.56 10.29 6.95 3.84 13.9 7.67 20.84 11.52 26.9 14.93 53.77 29.89 80.68 44.78 11.21 6.2 22.55 12.17 33.7 18.46 3.36 1.9 6.08 1.5 9.27-.28 28.27-15.8 56.63-31.46 84.91-47.24 22.23-12.4 44.39-24.92 66.58-37.36 1-.56 2.1-.93 3.5-1.47.7 5.98 1.38 12.04 1.33 18.1-.09 12.28-.81 24.56-.75 36.84.02 5.05-1.32 7.81-6.07 10.38-26.81 14.51-53.33 29.57-79.99 44.38-18.68 10.38-37.44 20.61-56.12 31.01-3.75 2.1-7.35 4.5-10.82 7.03-1.06.77-1.46 2.43-2.53 4-1.84.02-3.3-.29-4.77-.6z"/>
  <path fill="#45464B" d="M324.8 625.44c1.52-.12 2.99.2 4.83.55 12.19 7.02 23.94 14.09 35.82 20.95 8.96 5.18 18.09 10.09 27.14 15.13 12.85 7.16 25.74 14.25 38.54 21.52 12 6.82 23.88 13.85 35.86 20.72 3.3 1.89 6.85 3.35 10.1 5.32 1.96 1.19 3.58 2.96 6.04 5.06-14.7 7.97-28.32 15.34-41.91 22.74a1693.2 1693.2 0 0 0-19.99 11.04c-9.66 5.43-19.24 10.98-28.92 16.37a8559.4 8559.4 0 0 1-43.95 24.25c-5.79 3.18-11.56 6.4-17.46 9.35-1.43.72-3.36.44-5.4.58-.44-9.42-.53-18.79-.82-28.6-.16-7.41-.11-14.39-.1-21.37.06-41.06.11-82.13.22-123.61z"/>
</svg>
